<svg width="31" height="53" viewBox="0 0 31 53" fill="none" xmlns="http://www.w3.org/2000/svg">
<path d="M22.9476 21.729L19.5108 21.0197C19.0156 20.9176 18.5356 21.2376 18.4344 21.7279L17.9812 23.9243C17.879 24.4194 18.199 24.8995 18.6893 25.0007L22.126 25.7099C22.6212 25.8121 23.1013 25.492 23.2025 25.0017L23.6557 22.8054C23.7579 22.3102 23.4378 21.8301 22.9476 21.729Z" fill="white" stroke="#9C5916" stroke-width="0.2"/>
<path d="M17.2132 20.5205L13.7764 19.8112C13.2813 19.7091 12.8012 20.0291 12.7 20.5194L12.2468 22.7158C12.1446 23.2109 12.4647 23.691 12.9549 23.7922L16.3917 24.5014C16.8868 24.6036 17.3669 24.2835 17.4681 23.7933L17.9213 21.5969C18.0235 21.1017 17.7035 20.6216 17.2132 20.5205Z" fill="white" stroke="#9C5916" stroke-width="0.2"/>
<path d="M18.2218 25.7955L16.4323 25.4262C16.1774 25.3736 15.924 25.536 15.8704 25.7958L15.6347 26.9382C15.5821 27.1931 15.7445 27.4464 16.0043 27.5L17.7938 27.8693C18.0487 27.9219 18.302 27.7595 18.3557 27.4997L18.5914 26.3574C18.644 26.1024 18.4816 25.8491 18.2218 25.7955Z" fill="white" stroke="#9C5916" stroke-width="0.2"/>
<path d="M21.3135 26.4786L19.5241 26.1093C19.2691 26.0567 19.0158 26.2191 18.9622 26.479L18.7265 27.6213C18.6739 27.8762 18.8363 28.1295 19.0961 28.1831L20.8856 28.5524C21.1405 28.605 21.3938 28.4426 21.4475 28.1828L21.6832 27.0405C21.7358 26.7855 21.5734 26.5322 21.3135 26.4786Z" fill="white" stroke="#9C5916" stroke-width="0.2"/>
<path d="M13.3415 24.7392L15.126 25.1075C15.3833 25.1606 15.5488 25.4121 15.4957 25.6694L15.26 26.8117C15.2069 27.0689 14.9553 27.2344 14.6981 27.1813L12.9135 26.813C12.6563 26.76 12.4908 26.5084 12.5439 26.2512L12.7796 25.1089C12.8327 24.8516 13.0843 24.6862 13.3415 24.7392Z" fill="white" stroke="#9C5916" stroke-width="0.2"/>
<path d="M18.6214 29.0878L15.1846 28.3786C14.6895 28.2764 14.2094 28.5965 14.1082 29.0868L13.655 31.2832C13.5528 31.7783 13.8729 32.2584 14.3631 32.3596L17.7999 33.0688C18.295 33.171 18.7751 32.8509 18.8763 32.3606L19.3295 30.1643C19.4317 29.6691 19.1117 29.189 18.6214 29.0878Z" fill="white" stroke="#9C5916" stroke-width="0.2"/>
<path fill-rule="evenodd" clip-rule="evenodd" d="M10.0044 22.2341C9.704 22.5294 9.96931 23.1402 9.67897 23.4355C9.4537 23.6608 9.08326 23.6458 8.858 23.4205C8.71783 23.2853 8.68279 23.0851 8.70281 22.9349C8.71282 22.8598 8.63273 22.7947 8.54763 22.7997C8.39745 22.8098 8.21223 22.7747 8.07707 22.6446C7.8518 22.4193 7.83678 22.0489 8.06205 21.8236C8.3524 21.5282 8.95811 21.7936 9.26348 21.4932L10.53 20.2517C10.8353 19.9564 10.56 19.3457 10.8554 19.0503C11.0806 18.825 11.4511 18.8401 11.6763 19.0653C11.8065 19.1955 11.8415 19.3857 11.8315 19.5359C11.8315 19.621 11.8916 19.7011 11.9667 19.6911C12.1169 19.666 12.3171 19.7061 12.4523 19.8462C12.6775 20.0715 12.6925 20.442 12.4673 20.6672C12.1769 20.9626 11.5712 20.6973 11.2659 20.9976L9.99935 22.2391L10.0044 22.2341Z" fill="white" stroke="#9C5916" stroke-width="0.2"/>
<path fill-rule="evenodd" clip-rule="evenodd" d="M4.01328 27.6659C3.51456 27.9415 3.64503 28.8036 3.15305 29.0786C2.77777 29.2905 2.30261 29.1405 2.08699 28.7757C1.95885 28.5554 1.9761 28.2891 2.06155 28.1029C2.10119 28.0134 2.01661 27.9017 1.91261 27.8778C1.71192 27.836 1.48521 27.7303 1.35765 27.5165C1.14203 27.1517 1.26321 26.6777 1.63175 26.4665C2.11699 26.192 2.81066 26.7396 3.30937 26.464L5.40301 25.3261C5.90846 25.0499 5.77126 24.1884 6.26323 23.9133C6.63851 23.7015 7.11368 23.8515 7.3293 24.2163C7.45686 24.43 7.43113 24.6772 7.36648 24.8682C7.32799 24.9708 7.38677 25.098 7.48962 25.1088C7.69531 25.1303 7.93666 25.248 8.06538 25.4749C8.27426 25.8403 8.15982 26.3136 7.79127 26.5249C7.30604 26.7993 6.61236 26.2517 6.10691 26.528L4.01328 27.6659Z" fill="white" stroke="#9C5916" stroke-width="0.2"/>
<path fill-rule="evenodd" clip-rule="evenodd" d="M10.0738 14.1445C9.82355 13.6639 8.97755 13.764 8.73226 13.2985C8.54203 12.943 8.69721 12.4925 9.05264 12.3023C9.2729 12.1871 9.5282 12.2122 9.70341 12.2923C9.78851 12.3323 9.89864 12.2572 9.92367 12.1571C9.96872 11.9719 10.0789 11.7566 10.2891 11.6415C10.6445 11.4513 11.1051 11.5714 11.2953 11.9268C11.5456 12.3924 10.9999 13.0331 11.2502 13.5137L12.2915 15.5211C12.5418 16.0017 13.3878 15.9015 13.6331 16.3671C13.8233 16.7225 13.6681 17.1731 13.3077 17.3633C13.0974 17.4734 12.8571 17.4434 12.6769 17.3783C12.5768 17.3433 12.4517 17.3933 12.4366 17.4884C12.4066 17.6837 12.2865 17.9089 12.0662 18.0241C11.7058 18.2143 11.2502 18.0941 11.06 17.7387C10.8097 17.2732 11.3554 16.6324 11.1051 16.1518L10.0638 14.1445H10.0738Z" fill="white" stroke="#9C5916" stroke-width="0.2"/>
<path fill-rule="evenodd" clip-rule="evenodd" d="M4.10135 7.9976C3.75457 7.58534 2.95143 7.86879 2.60745 7.46737C2.34072 7.15931 2.39533 6.68976 2.70339 6.42303C2.89116 6.26363 3.14394 6.23079 3.33484 6.27173C3.42784 6.29167 3.5205 6.19378 3.52191 6.09169C3.52753 5.89835 3.5828 5.66445 3.76463 5.50889C4.07269 5.24216 4.54469 5.26145 4.81142 5.56951C5.1554 5.97093 4.76616 6.71175 5.11189 7.1289L6.56368 8.85836C6.9143 9.27656 7.71255 8.99207 8.06248 9.38964C8.3292 9.6977 8.2746 10.1672 7.96654 10.434C7.78471 10.5895 7.54486 10.6098 7.35467 10.5895C7.24978 10.5772 7.13684 10.6503 7.14732 10.7447C7.16128 10.9422 7.09307 11.1887 6.90529 11.3481C6.59828 11.61 6.12524 11.5956 5.85851 11.2875C5.51453 10.8861 5.90481 10.1404 5.55803 9.72811L4.10624 7.99865L4.10135 7.9976Z" fill="white" stroke="#9C5916" stroke-width="0.2"/>
<path fill-rule="evenodd" clip-rule="evenodd" d="M24.986 15.2794C25.2263 14.8539 24.7407 14.2682 24.971 13.8527C25.1512 13.5323 25.5617 13.4322 25.882 13.6124C26.0773 13.7226 26.1824 13.9278 26.2024 14.103C26.2124 14.1881 26.3226 14.2332 26.4127 14.2031C26.5779 14.1481 26.7931 14.123 26.9783 14.2282C27.2987 14.4084 27.4289 14.8089 27.2537 15.1292C27.0234 15.5447 26.2725 15.4446 26.0322 15.8651L25.021 17.6272C24.7807 18.0527 25.2663 18.6384 25.036 19.0539C24.8558 19.3743 24.4453 19.4744 24.125 19.2942C23.9397 19.189 23.8446 18.9938 23.8046 18.8236C23.7846 18.7285 23.6844 18.6584 23.6093 18.6985C23.4492 18.7685 23.2189 18.7886 23.0237 18.6784C22.7033 18.4982 22.5731 18.0978 22.7483 17.7774C22.9786 17.3619 23.7295 17.462 23.9748 17.0415L24.986 15.2794Z" fill="white" stroke="#9C5916" stroke-width="0.2"/>
<path fill-rule="evenodd" clip-rule="evenodd" d="M17.7726 38.7884C17.7027 37.4842 19.7126 36.7868 19.7393 35.5115C19.76 34.5358 18.9412 33.743 17.9655 33.7223C17.3698 33.7083 16.8511 34.04 16.5609 34.4094C16.4201 34.5893 16.1002 34.548 15.9338 34.3571C15.6339 34.0081 15.1663 33.6616 14.5944 33.648C13.6187 33.6273 12.7656 34.3822 12.7448 35.3578C12.7181 36.6331 14.5963 37.4125 14.5677 38.7171L15.2438 51.6552C15.2152 52.9598 13.3039 53.6568 13.2771 54.9321C13.2564 55.9078 14.0752 56.7006 15.0509 56.7213C15.6264 56.7329 16.1072 56.4088 16.4212 56.0727C16.5964 55.8871 16.9176 55.8572 17.0491 56.0447C17.3218 56.4282 17.8263 56.7815 18.422 56.7955C19.3977 56.8163 20.2509 56.0614 20.2716 55.0857C20.2983 53.8104 18.4201 53.0311 18.4487 51.7265L17.7761 38.7864L17.7726 38.7884Z" fill="white" stroke="#9C5916" stroke-width="0.2"/>
<path fill-rule="evenodd" clip-rule="evenodd" d="M15.5002 14.2938C15.4656 13.754 14.6571 13.5016 14.6197 12.9726C14.5927 12.5693 14.9147 12.2218 15.318 12.1949C15.5643 12.1748 15.7899 12.3021 15.9135 12.4555C15.9748 12.5297 16.1072 12.5024 16.1725 12.4225C16.2894 12.2707 16.478 12.1193 16.7145 12.1012C17.1179 12.0743 17.4907 12.3706 17.5176 12.7739C17.5551 13.3029 16.7964 13.6637 16.831 14.2035L16.9641 16.4608C16.9938 17.0015 17.8072 17.253 17.8446 17.7819C17.8716 18.1853 17.5496 18.5328 17.1463 18.5597C16.9098 18.5778 16.7048 18.4513 16.5646 18.3167C16.4876 18.2406 16.3541 18.2374 16.3045 18.3192C16.2004 18.4838 15.9971 18.6381 15.7508 18.6582C15.3475 18.6852 14.9746 18.3889 14.9477 17.9856C14.9102 17.4566 15.6689 17.0958 15.6343 16.556L15.5012 14.2987L15.5002 14.2938Z" fill="white" stroke="#9C5916" stroke-width="0.2"/>
<path fill-rule="evenodd" clip-rule="evenodd" d="M19.7951 14.0309C19.7959 13.4889 18.9989 13.1932 18.9918 12.6631C18.9845 12.2557 19.3311 11.9287 19.7346 11.9273C19.9839 11.9219 20.1968 12.062 20.3156 12.2165C20.372 12.2917 20.5064 12.2742 20.5776 12.1982C20.7063 12.0541 20.8969 11.9126 21.1365 11.9092C21.5438 11.9019 21.8962 12.2228 21.8976 12.6263C21.9047 13.1564 21.127 13.4752 21.1312 14.0161L21.1377 16.2791C21.137 16.821 21.9339 17.1167 21.9459 17.6458C21.9532 18.0532 21.6066 18.3802 21.2031 18.3816C20.9636 18.385 20.7664 18.2467 20.635 18.1051C20.5629 18.028 20.4273 18.0151 20.3718 18.093C20.2559 18.2497 20.0457 18.3953 19.8013 18.3997C19.3939 18.407 19.0425 18.091 19.0401 17.6826C19.033 17.1525 19.8107 16.8337 19.8065 16.2928L19.8 14.0299L19.7951 14.0309Z" fill="white" stroke="#9C5916" stroke-width="0.2"/>
<path fill-rule="evenodd" clip-rule="evenodd" d="M27.0028 9.35102C27.0579 8.86545 26.3721 8.52004 26.4221 8.04447C26.4572 7.67904 26.7976 7.42374 27.163 7.45878C27.3833 7.4788 27.5635 7.62898 27.6536 7.77916C27.6987 7.85425 27.8188 7.84924 27.8889 7.78917C28.014 7.67403 28.2043 7.5639 28.4195 7.58893C28.785 7.62398 29.0653 7.94435 29.0302 8.30979C28.9852 8.78535 28.2543 8.9906 28.1993 9.47617L27.974 11.4986C27.9189 11.9841 28.6047 12.3296 28.5547 12.8051C28.5196 13.1706 28.1792 13.4259 27.8138 13.3908C27.5985 13.3708 27.4384 13.2256 27.3332 13.0855C27.2782 13.0104 27.158 12.9853 27.103 13.0454C26.9828 13.1756 26.7826 13.2857 26.5573 13.2607C26.1919 13.2256 25.9115 12.9052 25.9466 12.5398C25.9966 12.0642 26.7225 11.859 26.7776 11.3734L27.0028 9.35102Z" fill="white" stroke="#9C5916" stroke-width="0.2"/>
<path fill-rule="evenodd" clip-rule="evenodd" d="M14.4299 4.51842C14.3953 3.97866 13.5868 3.72621 13.5493 3.19726C13.5224 2.79391 13.8444 2.44643 14.2477 2.41951C14.494 2.3994 14.7196 2.52668 14.8432 2.68009C14.9045 2.75434 15.0369 2.72705 15.1022 2.64715C15.2191 2.49527 15.4077 2.34394 15.6442 2.32586C16.0475 2.29894 16.4204 2.59519 16.4473 2.99854C16.4848 3.52749 15.7261 3.88834 15.7607 4.42811L16.2835 8.84884C16.3132 9.38962 17.1315 9.64005 17.169 10.169C17.1959 10.5723 16.874 10.9198 16.4706 10.9467C16.2341 10.9648 16.0292 10.8384 15.889 10.7038C15.812 10.6276 15.6784 10.6245 15.6288 10.7063C15.5248 10.8708 15.3215 11.0252 15.0752 11.0453C14.6718 11.0722 14.3 10.7809 14.272 10.3726C14.2346 9.84367 14.9933 9.48282 14.9587 8.94305L14.4358 4.52232L14.4299 4.51842Z" fill="white" stroke="#9C5916" stroke-width="0.2"/>
<path fill-rule="evenodd" clip-rule="evenodd" d="M18.5609 5.61324C18.3596 5.10784 17.5095 5.12464 17.3073 4.63986C17.1529 4.26279 17.3507 3.83357 17.7277 3.67918C17.9589 3.58553 18.2095 3.63608 18.378 3.73425C18.4598 3.78383 18.5792 3.71833 18.6149 3.61897C18.6796 3.43696 18.806 3.23201 19.0284 3.14528C19.4054 2.99088 19.8482 3.15517 20.0026 3.53224C20.2058 4.02192 19.5995 4.60179 19.8008 5.10719L21.0742 7.93698C21.2754 8.44238 22.1256 8.42558 22.3277 8.91036C22.4821 9.28743 22.2844 9.71665 21.9073 9.87104C21.686 9.96267 21.45 9.90908 21.2797 9.82664C21.1832 9.78008 21.0577 9.81617 21.0308 9.90861C20.9828 10.0974 20.8378 10.3113 20.6116 10.4039C20.2345 10.5583 19.7917 10.394 19.6373 10.017C19.4342 9.52729 20.0404 8.94742 19.8391 8.44202L18.5658 5.61223L18.5609 5.61324Z" fill="white" stroke="#9C5916" stroke-width="0.2"/>
</svg>
