<svg width="282" height="294" viewBox="0 0 282 294" fill="none" xmlns="http://www.w3.org/2000/svg">
<g clip-path="url(#clip0_603_6345)">
<circle cx="154.388" cy="166.727" r="127" fill="url(#paint0_radial_603_6345)"/>
<path d="M77.0907 155.208L83.0863 205.708C84.0863 209.708 85.0863 213.708 87.7841 216.9C92.5537 220.152 105.239 228.756 112.075 233.012C122.084 239.246 128.505 246.708 143.586 246.708C158.668 246.708 182.571 232.283 187.586 229.708C192.921 226.971 205.365 218.431 211.586 214.708C213.586 211.708 215.336 209.367 215.586 207.208L219.586 156.208L77.0908 152.78L77.0907 155.208Z" fill="#EEF5FF"/>
<path d="M214.214 211.459V211.46C214.001 213.43 212.949 215.213 211.334 216.359L211.003 216.58C206.166 219.629 196.61 225.618 190.178 229.424L190.176 229.425L190.123 229.457C188.858 230.203 187.718 230.864 186.763 231.399L179.328 235.448L179.326 235.45L179.293 235.468C178.329 235.976 177.291 236.518 176.196 237.075C171.565 239.43 165.89 242.096 160.162 244.173C154.425 246.253 148.674 247.727 143.88 247.727C129.129 247.727 121.846 240.592 111.868 234.05C106.798 230.725 98.4695 224.851 92.6284 220.693L87.8296 217.266L87.5933 217.088C86.2994 216.061 82.8492 212.562 81.5991 203.894L81.478 202.979L77.7993 154.452C78.0658 154.748 78.3643 155.018 78.689 155.27C79.6061 155.979 80.7556 156.561 81.9614 157.186L81.9829 157.197L82.0054 157.206L82.1821 156.759C82.0185 157.174 82.007 157.204 82.0063 157.206L82.0073 157.207C82.0082 157.207 82.0097 157.207 82.0112 157.208C82.0149 157.209 82.0205 157.212 82.0278 157.215C82.0426 157.221 82.065 157.23 82.0942 157.241C82.1526 157.264 82.2393 157.298 82.353 157.343C82.5813 157.433 82.9186 157.566 83.354 157.737C84.2249 158.08 85.4896 158.578 87.063 159.195C90.2097 160.431 94.5932 162.149 99.5405 164.078C109.435 167.937 121.588 172.644 130.613 176.032V176.033C139.207 179.259 147.368 180.001 156.134 177.113L216.571 157.206L216.574 157.205C218.254 156.639 219.575 155.594 220.495 154.259L214.214 211.459Z" fill="url(#paint1_linear_603_6345)" stroke="#4B4CCA" stroke-width="0.961094"/>
<path d="M220.088 158.552C219.803 163.071 219.412 169.168 218.992 175.474C218.149 188.109 217.191 201.523 216.715 204.85C215.779 211.402 212.547 215.272 210.851 216.336H210.849C206.011 219.386 196.459 225.372 190.031 229.176L190.029 229.177L189.972 229.21C189.342 229.582 188.743 229.933 188.182 230.258L186.63 231.144L179.19 235.195L179.186 235.198L179.159 235.213C178.195 235.721 177.158 236.262 176.065 236.817C171.44 239.17 165.777 241.831 160.064 243.902C154.338 245.978 148.624 247.438 143.88 247.438C129.238 247.438 122.045 240.377 112.026 233.809C105.273 229.38 92.7254 220.419 87.9976 217.031H87.9966C87.4469 216.638 86.1422 215.698 84.8491 213.536C83.5504 211.365 82.2393 207.919 81.7671 202.488C81.287 196.967 80.3259 184.415 79.4849 173.238C79.0644 167.651 78.6745 162.409 78.3892 158.563C78.2929 157.266 78.2086 156.128 78.1392 155.189C78.2601 155.295 78.3847 155.399 78.5132 155.498C79.4555 156.227 80.6314 156.822 81.8286 157.441L81.8638 157.46L81.8999 157.475H81.9009C81.9018 157.475 81.9039 157.476 81.9058 157.477C81.9095 157.478 81.9151 157.481 81.9224 157.483C81.9371 157.489 81.959 157.497 81.9878 157.509C82.0462 157.532 82.1335 157.566 82.2476 157.611C82.4758 157.701 82.8131 157.834 83.2485 158.006C84.1195 158.349 85.3841 158.845 86.9575 159.463C90.1045 160.699 94.4882 162.417 99.436 164.347C109.331 168.206 121.485 172.914 130.511 176.303C139.153 179.547 147.383 180.3 156.224 177.388L216.662 157.48L216.667 157.479C218.169 156.973 219.392 156.095 220.311 154.979C220.247 156.007 220.173 157.21 220.088 158.552Z" fill="url(#paint2_linear_603_6345)" stroke="#4B4CCA" stroke-width="1.53775"/>
<path opacity="0.2" d="M158.369 246.286C153.932 247.538 148.083 248.208 144.299 248.208C132.42 248.208 123.267 241.715 118.484 239.558C115.601 221.297 112.718 171.32 112.718 171.32L138.667 180.931H149.72L178.552 171.32C178.552 171.32 178.552 211.686 174.228 239.558L158.369 246.286Z" fill="url(#paint3_linear_603_6345)"/>
<path d="M149.719 181.412C140.878 184.397 130.083 178.997 121.367 175.645C102.896 168.537 77.1568 156.904 76.6763 155.943C76.1959 154.982 76.2164 155.089 76.1958 151.618C77.1569 149.696 77.6884 149.052 81.0013 148.254C81.0013 148.254 133.393 135.76 144.968 135.76C159.731 135.76 213.441 147.939 213.441 147.939C216.898 148.679 221.337 148.662 221.321 151.618C221.303 155.218 220.821 156.226 217.477 157.384L189.124 167.476L161.733 177.087L149.719 181.412Z" fill="url(#paint4_linear_603_6345)"/>
<path d="M219.028 155.427L215.425 156.7L214.696 156.96H214.691L150.861 179.585C145.446 181.506 139.553 181.365 134.225 179.194L83.8884 158.654C83.8884 158.654 83.8836 158.654 83.8789 158.649L81.6356 157.736L79.3047 156.784C76.2206 155.524 76.5333 150.861 79.7572 150.064L81.6356 149.602L142.736 134.53C146.28 133.658 149.966 133.608 153.531 134.385L215.428 147.931L218.638 148.631C221.999 149.37 222.283 154.268 219.031 155.422L219.028 155.427Z" fill="#4140A9"/>
<path d="M215.231 39.8004C220.164 40.3889 223.476 44.1985 223.116 49.1053C222.779 53.7139 222.29 59.3997 221.749 64.3047C221.479 66.7577 221.196 69.0122 220.913 70.8367C220.664 72.4461 220.419 73.6898 220.191 74.4422L220.093 74.7344C219.903 75.2555 219.788 75.4391 219.661 75.5627C219.511 75.7087 219.322 75.8026 218.833 76.0798L148.573 112.673L148.563 112.678L148.553 112.684C147.901 113.063 147.198 113.146 146.58 112.948L79.3333 80.7196L79.3039 80.7061L79.2732 80.6963C78.3364 80.393 77.6591 79.4106 77.6712 78.1385L77.6716 78.1376L77.6692 77.789C77.637 75.9509 77.2777 72.7102 76.7782 68.9902C76.2435 65.0085 75.5427 60.4403 74.8905 56.3706C73.9283 50.3664 77.9606 44.6432 83.9793 43.5568L147.766 32.0421L147.805 32.0354L147.842 32.0215C148.264 31.8707 148.695 31.8346 149.095 31.9092L149.11 31.9122L149.126 31.9142L215.231 39.8004Z" fill="url(#paint5_linear_603_6345)" stroke="#4B4CCA" stroke-width="0.961094"/>
<path d="M146.612 112.616L82.5364 81.1164C81.3898 80.7429 80.6262 79.5998 80.6223 78.2413C80.6149 76.7485 80.4445 74.1519 80.1965 71.1266C79.2223 59.2483 86.7907 48.2048 98.4062 45.188L149.108 32.0194C149.59 31.8569 150.092 31.8196 150.569 31.9119L213.818 40.0424C218.88 40.6931 222.318 44.6126 222.017 49.6854C221.481 58.7232 220.411 72.0138 219.383 74.8325C219.017 75.8345 218.835 75.8564 217.954 76.3371L148.915 112.353C148.183 112.762 147.362 112.857 146.618 112.615L146.612 112.616Z" fill="url(#paint6_linear_603_6345)"/>
<path d="M136.554 78.5L79.0542 54.8701C74.3837 53.0019 76.6936 48.0793 81.0936 45.401C81.7157 45.0224 82.4177 44.8022 83.1336 44.6696L146.679 32.8967C147.126 32.7784 147.597 32.7689 148.054 32.8695L215.985 40.7459C216.695 40.8282 217.401 40.9879 218.013 41.3506C221.392 43.3517 223.031 47.7377 221.054 48.87C221.054 48.87 165.554 75.3702 156.974 78.5C148.394 81.6297 144.054 80.8702 136.554 78.5Z" fill="url(#paint7_linear_603_6345)"/>
<path d="M170.575 55.7576L113.607 40.1978L129.287 33.8403L186.415 47.9936C196.6 50.5168 203.799 59.5962 203.933 70.0882L204.116 84.4101L184.891 93.9615L187.139 82.4162C189.446 70.5644 182.222 58.9389 170.575 55.7576Z" fill="url(#paint8_linear_603_6345)" stroke="#A48032" stroke-width="0.961094"/>
<path d="M170.46 55.239L112.533 40.5913L126.784 31.8562L186.43 48.1812C196.055 50.8154 202.894 59.34 203.38 69.3068L204.115 84.4107L184.891 93.9621L187.36 82.4323C189.959 70.2975 182.492 58.2812 170.46 55.239Z" fill="url(#paint9_linear_603_6345)"/>
<path d="M121.584 96.9825L103.877 89.7042L104.669 77.2994C105.229 68.5332 110.72 60.8461 118.83 57.4728L172.831 35.0123L191.084 41.9824L137.073 64.6952C129.362 67.9378 124.011 75.1008 123.089 83.4147L121.584 96.9825Z" fill="url(#paint10_linear_603_6345)" stroke="#A48032" stroke-width="0.961094"/>
<path d="M116.645 92.9452L100.625 87.4528L105.635 70.5883C107.269 65.0876 110.895 60.3935 115.804 57.4226L171.72 23.585L189.973 30.5552L133.2 64.2463C128.811 66.8508 125.41 70.8375 123.529 75.5819L116.645 92.9452Z" fill="url(#paint11_linear_603_6345)"/>
<path d="M109.79 32.8526C109.988 36.2685 112.268 39.5346 115.481 40.728C117.076 41.3205 118.807 41.4177 120.506 41.4703C127.696 41.7174 134.897 41.456 142.039 40.6781C143.031 40.5686 144.052 40.4451 144.901 39.9244C145.749 39.4036 146.381 38.3943 146.132 37.4289C145.996 36.8888 145.608 36.4458 145.23 36.0285C140.531 30.8996 134.634 26.8745 128.152 24.3659C120.943 21.5746 109.179 22.4199 109.784 32.848L109.79 32.8526Z" fill="#D76C04"/>
<path d="M111.805 33.1333C112.054 36.3054 114.249 39.3772 117.278 40.5438C118.782 41.1231 120.404 41.2454 121.995 41.3258C128.73 41.6886 135.465 41.5801 142.136 40.9913C143.062 40.9082 144.016 40.8126 144.801 40.3454C145.585 39.8782 146.158 38.9537 145.907 38.0536C145.769 37.5501 145.398 37.132 145.036 36.7379C140.542 31.8932 134.948 28.0501 128.834 25.6028C122.035 22.8797 111.039 23.445 111.799 33.1288L111.805 33.1333Z" fill="#BB4B03"/>
<path d="M155.899 43.9097C154.737 45.1483 152.919 45.4506 151.231 45.6369C149.607 45.8163 147.8 45.8983 146.564 44.8444C145.955 44.3298 145.578 43.608 145.21 42.9119C143.726 40.0704 142.671 38.0303 140.258 35.8945C138.552 34.38 136.894 32.6734 135.183 31.1168C134.588 30.5846 133.994 30.0629 133.383 29.5752C130.52 26.4856 126.857 23.7833 122.651 23.4362C121.32 23.3323 119.981 23.4802 118.704 23.8507C117.738 24.1336 116.787 24.5535 115.935 25.0906C114.379 26.0525 110.887 27.1748 109.953 28.6818C113.337 23.2476 117.272 19.2685 123.188 16.5441C127.459 14.5777 133.938 12.1114 139.057 13.1103C140.154 13.3148 141.19 13.6915 142.125 14.2555C145.126 16.0754 147.606 18.6096 149.627 21.4772C150.976 23.3781 152.113 25.4252 153.077 27.5074C154.321 30.2047 155.28 33.04 155.968 35.9268C156.528 38.2512 157.78 41.9137 155.913 43.8922L155.899 43.9097Z" fill="url(#paint12_linear_603_6345)"/>
<path d="M149.607 21.4905C146.271 24.8269 142.071 27.2818 137.953 29.6582C137.057 30.1789 136.129 30.7031 135.178 31.1231C134.583 30.5909 133.989 30.0692 133.378 29.5815C130.515 26.4919 126.852 23.7896 122.647 23.4425C121.316 23.3386 119.976 23.4865 118.699 23.857C118.738 23.8207 118.776 23.7844 118.815 23.7482C120.953 21.6598 123.409 19.8832 126.062 18.4745C129.667 16.5604 134.405 13.854 139.041 13.1178C140.138 13.3223 141.175 13.699 142.11 14.263C145.111 16.0829 147.59 18.617 149.611 21.4847L149.607 21.4905Z" fill="url(#paint13_linear_603_6345)"/>
<path d="M150.344 45.4102C145.038 48.5532 139.706 51.7149 134.596 55.1778C132.5 56.5997 130.779 58.0816 128.538 59.3593C124.341 61.7498 118.756 66.9893 113.493 66.1719C111.583 65.8649 109.891 64.7546 108.471 63.4487C105.116 60.36 102.966 56.1241 101.799 51.7154C101.233 49.6159 100.881 47.3807 101.46 45.2937C101.601 44.8029 101.766 44.331 101.982 43.8801C104.648 38.1514 113.01 35.9896 118.709 35.9476C119.878 35.9413 121.039 35.9573 122.2 35.9838C127.836 36.0928 133.468 36.5333 139.041 37.3111C144.078 38.0148 148.655 40.029 150.613 44.724C150.663 44.8306 150.704 44.9595 150.675 45.0801C150.645 45.2382 150.486 45.3412 150.341 45.4266L150.344 45.4102Z" fill="url(#paint14_linear_603_6345)"/>
<path d="M117.686 62.5799C116.502 62.9188 115.187 63.1441 114.071 62.6268C112.988 62.1271 112.319 61.0373 111.736 60.0073C108.647 54.5244 106.067 48.681 101.988 43.884L101.983 43.8793C104.649 38.1505 113.011 35.9888 118.71 35.9467C119.879 35.9404 121.039 35.9564 122.201 35.9829C122.89 36.9158 123.5 37.9107 123.981 38.7064C125.509 41.1801 126.822 43.8857 129.043 45.8398C130.308 46.9546 131.963 48.0263 132.023 49.7119C132.051 50.5202 131.674 51.2825 131.272 51.9781C128.326 57.0811 123.35 60.967 117.682 62.5857L117.686 62.5799Z" fill="url(#paint15_linear_603_6345)"/>
<path d="M145.353 50.5092C144.863 51.1239 144.348 51.7093 143.775 52.2103C142.698 53.1619 141.446 53.9354 140.345 54.9058C138.083 56.8957 135.88 58.97 133.527 60.8579C128.723 64.7088 123.265 67.4627 116.962 67.31C115.848 67.2835 114.667 67.1843 113.751 66.5489C111.626 65.0645 112.161 61.7545 113.392 59.4887C116.398 53.9734 122.052 50.2262 128.096 48.4858C134.14 46.7455 140.58 46.8351 146.841 47.5478C147.106 47.5772 147.382 47.6535 147.641 47.7263C146.824 48.5692 146.106 49.5773 145.349 50.5151L145.353 50.5092Z" fill="#D76C04"/>
<path d="M146.029 50.2932C145.563 50.8774 145.073 51.4337 144.528 51.9095C143.505 52.8135 142.314 53.5478 141.266 54.4696C139.116 56.3598 137.021 58.3304 134.784 60.1235C130.215 63.7809 125.022 66.3937 119.021 66.2397C117.96 66.213 116.836 66.1171 115.962 65.5112C113.938 64.096 114.442 60.9473 115.611 58.7931C118.465 53.5496 123.844 49.992 129.596 48.3444C135.348 46.6967 141.48 46.7908 147.441 47.4775C147.694 47.5059 147.957 47.5789 148.204 47.6485C147.427 48.4493 146.745 49.4075 146.025 50.2988L146.029 50.2932Z" fill="#BB4B03"/>
<path d="M193.16 41.7172C194.557 39.9294 195.505 37.7536 195.63 35.487C195.896 30.7173 191.977 28.1073 187.744 27.2402C185.889 26.8524 184.119 26.9251 182.286 26.9567C181.95 26.9671 181.614 26.9668 181.267 26.9678C176.474 26.9472 173.027 27.9524 169.685 30.9478C169.219 31.3622 168.754 31.8246 168.287 32.314C166.088 34.66 164.032 37.1397 162.135 39.746C161.018 41.2786 159.866 42.9272 158.142 43.7262C157.853 43.8595 157.539 43.9636 157.231 43.8908C156.742 43.7686 156.499 43.2296 156.311 42.7539C155.172 39.7568 154.04 36.7644 152.901 33.7672C151.523 30.1187 153.434 29.0375 155.347 26.2052C156.481 24.532 157.659 22.8857 158.984 21.3462C160.081 20.056 161.258 18.8585 162.559 17.7699C164.754 15.9474 167.39 14.5247 170.152 13.8354C172.276 13.3072 174.492 13.2173 176.64 13.7329C180.242 14.595 183.247 17.0123 186.116 19.3592C189.008 21.7144 191.901 24.0801 194.564 26.6846C199.183 31.2032 198.719 38.2582 193.16 41.7172Z" fill="url(#paint16_linear_603_6345)"/>
<path d="M182.292 26.9617C181.956 26.9721 181.62 26.9718 181.273 26.9728C176.48 26.9522 173.033 27.9574 169.691 30.9528C166.399 28.0387 163.102 25.1304 159.81 22.2162C159.513 21.9501 159.203 21.6746 158.99 21.3512C160.087 20.061 161.264 18.8635 162.565 17.7749C164.76 15.9524 167.396 14.5297 170.158 13.8403C171.536 14.7291 172.575 16.6216 173.583 17.7807C175.184 19.6325 176.876 21.4047 178.66 23.0868C179.942 24.3012 181.303 25.5121 182.292 26.9617Z" fill="url(#paint17_linear_603_6345)"/>
<path d="M178.648 25.971C183.46 24.9433 188.823 25.0931 192.872 27.9023C194.015 28.6996 195.05 29.717 195.602 30.9906C195.869 31.5964 196.017 32.2419 196.151 32.8945C196.702 35.5668 196.974 38.4087 196.004 40.95C194.763 44.2045 191.623 46.441 188.281 47.4346C184.938 48.4176 181.376 48.3251 177.891 48.1121C176.423 48.0233 174.946 47.9087 173.48 47.793C171.945 47.6796 170.409 47.5556 168.874 47.4422C165.948 47.2154 162.951 46.9699 160.154 46.0029C159.169 45.6578 156.774 44.9347 156.245 43.9469C155.716 42.9697 156.889 41.6444 157.483 40.7194C160.509 35.9866 164.758 32.0475 169.682 29.3366C172.48 27.7945 175.505 26.6437 178.633 25.978L178.648 25.971Z" fill="#D76C04"/>
<path d="M176.875 26.9732C181.473 25.9738 186.594 26.0988 190.451 28.772C191.54 29.5306 192.525 30.5003 193.047 31.7166C193.3 32.2951 193.44 32.9121 193.565 33.5358C194.082 36.0899 194.332 38.8073 193.397 41.2413C192.201 44.3585 189.194 46.5084 186 47.4701C182.804 48.4218 179.403 48.3455 176.076 48.1536C174.674 48.0737 173.265 47.9691 171.865 47.8634C170.4 47.7602 168.933 47.6468 167.468 47.5436C164.675 47.3367 161.813 47.112 159.145 46.1966C158.206 45.87 155.922 45.1865 155.419 44.2435C154.918 43.3105 156.043 42.0389 156.613 41.1521C159.519 36.6149 163.59 32.8328 168.301 30.2229C170.978 28.7384 173.871 27.6274 176.86 26.98L176.875 26.9732Z" fill="#BB4B03"/>
<path d="M186.6 62.3422C181.712 63.1275 176.795 63.6971 171.853 64.056C169.883 64.1988 167.91 64.0909 165.949 64.2701C165.183 64.3387 161.523 64.5613 161.126 65.0109C161.211 64.916 161.291 64.8165 161.375 64.7111C163.704 61.961 165.65 58.2443 165.874 54.6003C165.908 54.0521 165.902 53.4921 165.844 52.938C165.62 50.6033 164.581 48.3372 162.69 46.9819C162.446 46.806 162.182 46.643 161.909 46.5023C160.425 45.7107 158.668 45.4296 156.958 45.3301C155.067 45.2293 152.771 45.1412 150.965 45.789C150.288 46.0346 149.749 46.4091 149.046 46.6148C148.663 46.7211 147.958 46.7242 147.341 46.7871C146.898 46.836 146.49 46.913 146.275 47.0863C147.016 46.4706 147.758 45.8549 148.504 45.2334C156.888 38.2701 168.978 36.4012 179.633 35.5131C181.199 35.3829 182.774 35.289 184.328 35.475C187.063 35.8083 189.677 36.8115 191.926 38.3568C193.307 39.3147 194.539 40.4705 195.58 41.8182C196.419 42.8999 196.975 44.1197 197.282 45.3991C198.968 52.35 193.421 61.2314 186.599 62.3317L186.6 62.3422Z" fill="url(#paint18_linear_603_6345)"/>
<path d="M197.283 45.4105C186.643 47.1725 176.128 49.6949 165.846 52.9495C165.621 50.6148 164.582 48.3486 162.692 46.9933C162.447 46.8175 159.247 45.1773 158.974 45.0365C159.773 43.6618 153.971 45.2947 155.493 44.6889C158.135 43.6445 169.39 40.2737 172.181 39.7894C177.162 38.9351 178.616 37.9179 183.556 36.8386C184.514 36.6261 186.666 35.7798 187.633 35.497C189.013 36.4549 194.542 40.4925 195.582 41.8402C196.422 42.9219 196.978 44.1417 197.284 45.421L197.283 45.4105Z" fill="url(#paint19_linear_603_6345)"/>
<path d="M161.377 64.7217C160.394 64.905 159.393 64.8821 158.42 64.6425C156.732 64.2151 155.272 63.1271 153.969 61.9631C151.679 59.9152 149.662 57.5009 148.427 54.6853C147.582 52.766 146.471 49.0719 147.337 46.793C147.955 46.7301 148.659 46.727 149.042 46.6207C149.74 46.4208 150.29 46.0451 150.961 45.7949C152.767 45.1471 155.063 45.2352 156.954 45.336C158.658 45.4308 160.415 45.7119 161.905 46.5082C162.173 46.6548 162.442 46.8119 162.687 46.9878C164.577 48.3431 165.612 50.6151 165.84 52.9439C165.899 53.498 165.908 54.0521 165.87 54.6062C165.646 58.2502 163.7 61.9669 161.371 64.717L161.377 64.7217Z" fill="#D76C04"/>
<path d="M160.912 63.7487C159.973 63.9252 159.016 63.9046 158.087 63.6768C156.474 63.2702 155.08 62.2318 153.837 61.1204C151.651 59.1653 149.727 56.8593 148.55 54.1687C147.745 52.3347 146.688 48.8039 147.519 46.6238C148.109 46.5629 148.782 46.559 149.148 46.4569C149.816 46.2649 150.342 45.905 150.983 45.6649C152.709 45.0432 154.903 45.1245 156.71 45.2185C158.338 45.3069 160.017 45.5735 161.44 46.333C161.696 46.4728 161.953 46.6227 162.186 46.7906C163.991 48.0841 164.977 50.2551 165.192 52.4816C165.247 53.0113 165.256 53.5411 165.219 54.0709C165 57.5555 163.136 61.1118 160.907 63.7443L160.912 63.7487Z" fill="#BB4B03"/>
</g>
<defs>
<radialGradient id="paint0_radial_603_6345" cx="0" cy="0" r="1" gradientUnits="userSpaceOnUse" gradientTransform="translate(154.388 166.727) rotate(93.3292) scale(116.56 121.557)">
<stop offset="0.110577" stop-color="#5E69FF"/>
<stop offset="0.816169" stop-color="#5E69FF" stop-opacity="0"/>
</radialGradient>
<linearGradient id="paint1_linear_603_6345" x1="149.204" y1="199.795" x2="145.494" y2="248.211" gradientUnits="userSpaceOnUse">
<stop stop-color="#737BE8"/>
<stop offset="1" stop-color="#171C7D"/>
</linearGradient>
<linearGradient id="paint2_linear_603_6345" x1="149.204" y1="199.795" x2="214.578" y2="183.753" gradientUnits="userSpaceOnUse">
<stop stop-color="#C8B6F4" stop-opacity="0"/>
<stop offset="1" stop-color="#C8B6F4"/>
</linearGradient>
<linearGradient id="paint3_linear_603_6345" x1="112.718" y1="209.017" x2="178.552" y2="210.511" gradientUnits="userSpaceOnUse">
<stop offset="0.34091" stop-color="#4950B8"/>
<stop offset="0.509509" stop-color="#BFB0F3"/>
</linearGradient>
<linearGradient id="paint4_linear_603_6345" x1="142.031" y1="138.643" x2="156.447" y2="177.087" gradientUnits="userSpaceOnUse">
<stop stop-color="#535EC7"/>
<stop offset="1" stop-color="#ACB3FF"/>
</linearGradient>
<linearGradient id="paint5_linear_603_6345" x1="149.859" y1="57.1495" x2="129.589" y2="99.7549" gradientUnits="userSpaceOnUse">
<stop stop-color="#737BE8"/>
<stop offset="1" stop-color="#171C7D"/>
</linearGradient>
<linearGradient id="paint6_linear_603_6345" x1="150.485" y1="57.2179" x2="215.71" y2="65.1194" gradientUnits="userSpaceOnUse">
<stop stop-color="#C8B6F4" stop-opacity="0"/>
<stop offset="1" stop-color="#C8B6F4"/>
</linearGradient>
<linearGradient id="paint7_linear_603_6345" x1="163.516" y1="16.7546" x2="139.802" y2="77.9147" gradientUnits="userSpaceOnUse">
<stop stop-color="#CACAFF"/>
<stop offset="1" stop-color="#8E8EE8"/>
</linearGradient>
<linearGradient id="paint8_linear_603_6345" x1="164.983" y1="15.5857" x2="161.147" y2="121.974" gradientUnits="userSpaceOnUse">
<stop stop-color="#F6C009"/>
<stop offset="1" stop-color="#D7931D"/>
</linearGradient>
<linearGradient id="paint9_linear_603_6345" x1="184.159" y1="54.3457" x2="195.539" y2="80.1982" gradientUnits="userSpaceOnUse">
<stop stop-color="white" stop-opacity="0"/>
<stop offset="0.514423" stop-color="white"/>
<stop offset="1" stop-color="white" stop-opacity="0"/>
</linearGradient>
<linearGradient id="paint10_linear_603_6345" x1="159.482" y1="20.0916" x2="192.995" y2="81.0994" gradientUnits="userSpaceOnUse">
<stop stop-color="#F6C009"/>
<stop offset="1" stop-color="#D7931D"/>
</linearGradient>
<linearGradient id="paint11_linear_603_6345" x1="107.057" y1="61.6738" x2="123.674" y2="45.1378" gradientUnits="userSpaceOnUse">
<stop stop-color="white" stop-opacity="0"/>
<stop offset="0.514423" stop-color="white"/>
<stop offset="1" stop-color="white" stop-opacity="0"/>
</linearGradient>
<linearGradient id="paint12_linear_603_6345" x1="134.141" y1="10.538" x2="143.487" y2="64.0367" gradientUnits="userSpaceOnUse">
<stop stop-color="#F6C009"/>
<stop offset="1" stop-color="#D7931D"/>
</linearGradient>
<linearGradient id="paint13_linear_603_6345" x1="131.042" y1="15.9832" x2="137.848" y2="28.1787" gradientUnits="userSpaceOnUse">
<stop stop-color="white" stop-opacity="0"/>
<stop offset="0.471154" stop-color="white"/>
<stop offset="1" stop-color="white" stop-opacity="0"/>
</linearGradient>
<linearGradient id="paint14_linear_603_6345" x1="124.488" y1="26.0662" x2="144.701" y2="76.1648" gradientUnits="userSpaceOnUse">
<stop stop-color="#F6C009"/>
<stop offset="1" stop-color="#D7931D"/>
</linearGradient>
<linearGradient id="paint15_linear_603_6345" x1="126.122" y1="42.8752" x2="109.157" y2="51.8892" gradientUnits="userSpaceOnUse">
<stop stop-color="white" stop-opacity="0"/>
<stop offset="0.471154" stop-color="white"/>
<stop offset="1" stop-color="white" stop-opacity="0"/>
</linearGradient>
<linearGradient id="paint16_linear_603_6345" x1="174.232" y1="13.2664" x2="190.804" y2="63.7447" gradientUnits="userSpaceOnUse">
<stop stop-color="#F6C009"/>
<stop offset="1" stop-color="#D7931D"/>
</linearGradient>
<linearGradient id="paint17_linear_603_6345" x1="175.496" y1="18.0721" x2="165.649" y2="26.3083" gradientUnits="userSpaceOnUse">
<stop offset="0.132978" stop-color="white" stop-opacity="0"/>
<stop offset="0.471154" stop-color="white"/>
<stop offset="1" stop-color="white" stop-opacity="0"/>
</linearGradient>
<linearGradient id="paint18_linear_603_6345" x1="172.442" y1="26.4245" x2="190.013" y2="81.5875" gradientUnits="userSpaceOnUse">
<stop stop-color="#F6C009"/>
<stop offset="1" stop-color="#D7931D"/>
</linearGradient>
<linearGradient id="paint19_linear_603_6345" x1="172" y1="41.9001" x2="173.661" y2="49.2388" gradientUnits="userSpaceOnUse">
<stop stop-color="white" stop-opacity="0"/>
<stop offset="0.471154" stop-color="white"/>
<stop offset="1" stop-color="white" stop-opacity="0"/>
</linearGradient>
<clipPath id="clip0_603_6345">
<rect width="280.777" height="293.525" fill="white" transform="translate(0.611328 0.201172)"/>
</clipPath>
</defs>
</svg>
