<svg width="175" height="67" viewBox="0 0 175 67" fill="none" xmlns="http://www.w3.org/2000/svg">
<g clip-path="url(#clip0_69_912)">
<path d="M16.7632 65.5275L0 21.7993H13.319L23.499 50.7262L33.679 21.7993H47.0634L30.3002 65.5275H16.785H16.7632Z" fill="white"/>
<path d="M66.2024 65.5275V49.5055L50.4419 21.7993H63.7609L72.5894 38.3009L81.4179 21.7993H94.7369L78.9764 49.5055V65.5275H66.2024Z" fill="white"/>
<path d="M98.1162 65.5275V21.7993H122.16C126.585 21.7993 129.964 22.8457 132.275 24.9165C134.585 27.0092 135.741 29.9956 135.741 33.8758C135.741 36.1429 135.327 38.0394 134.476 39.5871C133.648 41.1348 132.536 42.3555 131.185 43.2492C133.038 43.9686 134.52 45.0367 135.632 46.4101C136.744 47.7834 137.288 49.8325 137.288 52.5573C137.288 56.6773 136.024 59.8599 133.496 62.1269C130.967 64.394 127.37 65.5275 122.705 65.5275H98.1162ZM110.411 39.2601H118.694C121.811 39.2601 123.381 37.865 123.381 35.0529C123.381 33.6578 123.01 32.5897 122.269 31.8703C121.528 31.151 120.22 30.7804 118.367 30.7804H110.432V39.2601H110.411ZM110.411 56.6337H119.239C120.961 56.6337 122.226 56.2631 123.032 55.5437C123.839 54.8244 124.253 53.6254 124.253 51.9469C124.253 50.5518 123.839 49.4837 123.032 48.7643C122.226 48.045 120.852 47.6744 118.956 47.6744H110.389V56.6337H110.411Z" fill="white"/>
<path d="M156.384 66.2026C153.441 66.2026 150.651 65.9628 148.035 65.4832C145.419 65.0037 143.174 64.3497 141.321 63.4778V52.949C143.348 53.9081 145.615 54.6711 148.122 55.2597C150.607 55.8482 152.94 56.1316 155.119 56.1316C157.299 56.1316 159.087 55.9354 160.242 55.5648C161.397 55.1725 161.964 54.3005 161.964 52.949C161.964 51.9898 161.637 51.2487 160.983 50.7037C160.329 50.1588 159.305 49.6574 157.931 49.1996C156.558 48.7418 154.749 48.1751 152.525 47.4993C149.583 46.5402 147.25 45.5156 145.528 44.3821C143.806 43.2486 142.563 41.8752 141.822 40.2403C141.081 38.6054 140.71 36.6218 140.71 34.2675C140.71 29.9731 142.236 26.7033 145.288 24.4581C148.34 22.2128 152.874 21.1011 158.912 21.1011C161.31 21.1011 163.795 21.2973 166.346 21.7114C168.896 22.1256 170.967 22.5616 172.558 23.063V33.6571C170.422 32.807 168.395 32.1966 166.455 31.826C164.515 31.4555 162.684 31.2811 160.961 31.2811C158.978 31.2811 157.277 31.4337 155.861 31.7606C154.465 32.0876 153.746 32.8942 153.746 34.2021C153.746 35.3356 154.335 36.164 155.555 36.6871C156.754 37.2103 158.891 37.8861 161.964 38.6926C165.539 39.6518 168.264 40.8071 170.139 42.1586C172.013 43.5101 173.3 45.0797 173.975 46.8889C174.651 48.6764 175 50.7037 175 52.9708C175 56.9599 173.452 60.1644 170.378 62.584C167.305 65.0037 162.64 66.2244 156.384 66.2244V66.2026Z" fill="white"/>
<path d="M84.513 13.2536L79.957 15.6079C77.8207 16.4798 76.1422 18.1583 75.2703 20.2946L72.916 24.8505C72.807 25.1121 72.5673 25.2647 72.2839 25.2647C72.0005 25.2647 71.7607 25.0903 71.6517 24.8505L69.7552 20.2074C68.8179 17.9185 67.0086 16.0874 64.6979 15.1501L60.0548 13.2536C59.7932 13.1446 59.6406 12.9048 59.6406 12.6215C59.6406 12.3381 59.815 12.0983 60.0548 11.9893L65.0031 9.98381C67.0958 9.13366 68.7743 7.45516 69.6244 5.36248L71.6299 0.414175C71.7389 0.152591 71.9787 0 72.2621 0C72.5455 0 72.7852 0.17439 72.8942 0.414175L74.7907 5.0791C75.7063 7.36796 77.5156 9.15546 79.8044 10.0928L84.4694 11.9893C84.7309 12.0983 84.8835 12.3381 84.8835 12.6215C84.8835 12.9048 84.7091 13.1446 84.4694 13.2536H84.513Z" fill="#FED846"/>
</g>
<defs>
<clipPath id="clip0_69_912">
<rect width="175" height="66.2248" fill="white"/>
</clipPath>
</defs>
</svg>
