<svg width="245" height="101" viewBox="0 0 245 101" fill="none" xmlns="http://www.w3.org/2000/svg">
<g clip-path="url(#clip0_164_3339)">
<path d="M23.4685 95.691L0 34.3979H18.6466L32.8986 74.9442L47.1506 34.3979H65.8888L42.4203 95.691H23.499H23.4685Z" fill="white"/>
<path d="M92.6838 95.691V73.2332L70.6191 34.3979H89.2658L101.626 57.528L113.986 34.3979H132.632L110.567 73.2332V95.691H92.6838Z" fill="white"/>
<path d="M137.363 95.691V34.3979H171.025C177.22 34.3979 181.95 35.8646 185.185 38.7673C188.42 41.7006 190.038 45.8866 190.038 51.3253C190.038 54.503 189.458 57.1613 188.268 59.3307C187.108 61.5001 185.552 63.2112 183.659 64.4639C186.253 65.4722 188.329 66.9694 189.885 68.8944C191.442 70.8193 192.205 73.6915 192.205 77.5109C192.205 83.2857 190.434 87.7467 186.894 90.9244C183.354 94.1021 178.319 95.691 171.788 95.691H137.363ZM154.576 58.8724H166.172C170.537 58.8724 172.734 56.9169 172.734 52.9753C172.734 51.0198 172.215 49.5226 171.177 48.5143C170.14 47.506 168.309 46.9866 165.715 46.9866H154.606V58.8724H154.576ZM154.576 83.2246H166.935C169.346 83.2246 171.116 82.7052 172.246 81.6969C173.375 80.6886 173.955 79.008 173.955 76.6553C173.955 74.6998 173.375 73.2026 172.246 72.1943C171.116 71.186 169.194 70.6666 166.539 70.6666H154.545V83.2246H154.576Z" fill="white"/>
<path d="M218.937 96.6369C214.817 96.6369 210.911 96.3008 207.249 95.6286C203.587 94.9564 200.443 94.0398 197.849 92.8176V78.0596C200.687 79.404 203.861 80.4734 207.371 81.2984C210.85 82.1234 214.115 82.5206 217.167 82.5206C220.219 82.5206 222.721 82.2456 224.339 81.7262C225.956 81.1762 226.75 79.954 226.75 78.0596C226.75 76.7152 226.292 75.6763 225.377 74.9124C224.461 74.1486 223.027 73.4458 221.104 72.8042C219.181 72.1625 216.648 71.3681 213.535 70.4209C209.416 69.0765 206.15 67.6404 203.739 66.0515C201.328 64.4627 199.589 62.5377 198.551 60.2461C197.513 57.9545 196.995 55.174 196.995 51.8741C196.995 45.8548 199.131 41.2715 203.403 38.1244C207.676 34.9772 214.024 33.4189 222.477 33.4189C225.834 33.4189 229.313 33.6939 232.884 34.2745C236.455 34.855 239.354 35.4661 241.582 36.1689V51.0185C238.591 49.8269 235.753 48.9714 233.037 48.4519C230.321 47.9325 227.757 47.6881 225.346 47.6881C222.569 47.6881 220.188 47.9019 218.205 48.3603C216.252 48.8186 215.245 49.9491 215.245 51.7824C215.245 53.3713 216.069 54.5323 217.778 55.2657C219.456 55.999 222.447 56.9462 226.75 58.0767C231.755 59.4211 235.57 61.0405 238.194 62.9349C240.819 64.8293 242.619 67.0293 243.565 69.5653C244.511 72.0708 245 74.9124 245 78.0901C245 83.6817 242.833 88.1732 238.53 91.5648C234.227 94.9564 227.696 96.6675 218.937 96.6675V96.6369Z" fill="white"/>
<path d="M118.319 22.4196L111.941 25.7196C108.95 26.9418 106.6 29.2945 105.379 32.2889L102.083 38.6748C101.931 39.0415 101.595 39.2554 101.198 39.2554C100.801 39.2554 100.466 39.0109 100.313 38.6748L97.658 32.1666C96.3457 28.9584 93.8127 26.3918 90.5778 25.0779L84.0774 22.4196C83.7112 22.2669 83.4976 21.9308 83.4976 21.5335C83.4976 21.1363 83.7417 20.8002 84.0774 20.6475L91.005 17.8364C93.9348 16.6448 96.2847 14.292 97.4749 11.3588L100.283 4.42283C100.435 4.05617 100.771 3.84229 101.168 3.84229C101.564 3.84229 101.9 4.08672 102.053 4.42283L104.708 10.9616C105.989 14.1698 108.522 16.6753 111.727 17.9892L118.258 20.6475C118.624 20.8002 118.838 21.1363 118.838 21.5335C118.838 21.9308 118.593 22.2669 118.258 22.4196H118.319Z" fill="#FED846"/>
</g>
<defs>
<clipPath id="clip0_164_3339">
<rect width="245" height="92.8262" fill="white" transform="translate(0 3.84229)"/>
</clipPath>
</defs>
</svg>
