<svg width="243" height="15" viewBox="0 0 243 15" fill="none" xmlns="http://www.w3.org/2000/svg">
<path d="M6.67203 14.2C4.51203 14.2 2.87203 13.6333 1.75203 12.5C0.632031 11.3667 0.0720313 9.79333 0.0720313 7.78C0.0720313 5.64667 0.638698 3.97333 1.77203 2.76C2.90536 1.53333 4.59203 0.919999 6.83203 0.919999C7.60537 0.919999 8.30537 0.966666 8.93203 1.06C9.5587 1.14 10.152 1.27333 10.712 1.46V3.78C10.152 3.58 9.5587 3.44 8.93203 3.36C8.3187 3.26667 7.68536 3.22 7.03203 3.22C5.4987 3.22 4.41203 3.6 3.77203 4.36C3.13203 5.10667 2.81203 6.24667 2.81203 7.78C2.81203 10.54 4.11203 11.92 6.71203 11.92C7.16537 11.92 7.60537 11.8867 8.03203 11.82C8.47203 11.74 8.8587 11.64 9.19203 11.52V8.52H6.19203V6.8H11.472V13.1C11.032 13.38 10.4187 13.6333 9.63203 13.86C8.84537 14.0867 7.8587 14.2 6.67203 14.2ZM16.3231 14.2C15.7231 14.2 15.1631 14.0933 14.6431 13.88C14.1365 13.6533 13.7231 13.3267 13.4031 12.9C13.0965 12.46 12.9431 11.9133 12.9431 11.26C12.9431 10.3267 13.2698 9.58 13.9231 9.02C14.5898 8.46 15.5698 8.18 16.8631 8.18H19.6631V7.92C19.6631 7.33333 19.4965 6.92 19.1631 6.68C18.8431 6.44 18.1898 6.32 17.2031 6.32C16.1231 6.32 15.0831 6.48667 14.0831 6.82V4.92C14.5231 4.74667 15.0565 4.60667 15.6831 4.5C16.3231 4.38 17.0165 4.32 17.7631 4.32C19.1898 4.32 20.2898 4.61333 21.0631 5.2C21.8498 5.77333 22.2431 6.7 22.2431 7.98V14H19.9031L19.7631 13.14C19.3898 13.4733 18.9298 13.7333 18.3831 13.92C17.8365 14.1067 17.1498 14.2 16.3231 14.2ZM17.0631 12.42C17.6631 12.42 18.1831 12.32 18.6231 12.12C19.0631 11.92 19.4098 11.6667 19.6631 11.36V9.86H16.9231C15.8698 9.86 15.3431 10.2933 15.3431 11.16C15.3431 12 15.9165 12.42 17.0631 12.42ZM24.4173 14V4.52H26.9173L27.0173 5.44C27.4707 5.09333 27.964 4.82 28.4973 4.62C29.044 4.42 29.6307 4.32 30.2573 4.32C30.924 4.32 31.4373 4.42 31.7973 4.62C32.1707 4.82 32.4573 5.10667 32.6573 5.48C33.0973 5.13333 33.5973 4.85333 34.1573 4.64C34.7307 4.42667 35.404 4.32 36.1773 4.32C37.2707 4.32 38.0773 4.60667 38.5973 5.18C39.1173 5.74 39.3773 6.6 39.3773 7.76V14H36.7173V8.06C36.7173 7.43333 36.584 6.98667 36.3173 6.72C36.0507 6.44 35.624 6.3 35.0373 6.3C34.2373 6.3 33.5707 6.58667 33.0373 7.16C33.104 7.38667 33.1373 7.66 33.1373 7.98V14H30.6173V8.06C30.6173 7.47333 30.5173 7.03333 30.3173 6.74C30.1173 6.44667 29.7307 6.3 29.1573 6.3C28.7573 6.3 28.3773 6.40667 28.0173 6.62C27.6707 6.82 27.3573 7.05333 27.0773 7.32V14H24.4173ZM42.2453 2.78V0.659999H45.1853V2.78H42.2453ZM42.4653 14V6.52H41.0453L41.2853 4.52H45.1653V14H42.4653ZM47.9842 14V6.6H46.6642V4.52H47.9842V3.58C47.9842 2.91333 48.1442 2.32 48.4642 1.8C48.7842 1.28 49.2442 0.866666 49.8442 0.559999C50.4576 0.253332 51.1776 0.099999 52.0042 0.099999C53.0576 0.099999 53.9042 0.233333 54.5442 0.5V2.5C54.3709 2.40667 54.1109 2.34 53.7642 2.3C53.4176 2.24667 53.1109 2.22 52.8442 2.22C52.0709 2.22 51.5176 2.33333 51.1842 2.56C50.8509 2.78667 50.6842 3.15333 50.6842 3.66V4.52H56.1242V14H53.4242V6.6H50.6842V14H47.9842ZM63.3417 14.2C61.7017 14.2 60.4017 13.7933 59.4417 12.98C58.4817 12.1533 58.0017 10.9067 58.0017 9.24C58.0017 7.73333 58.4017 6.54 59.2017 5.66C60.0151 4.76667 61.2217 4.32 62.8217 4.32C64.2884 4.32 65.4084 4.70667 66.1817 5.48C66.9684 6.24 67.3617 7.24 67.3617 8.48V10.2H60.5017C60.6484 10.96 60.9951 11.48 61.5417 11.76C62.1017 12.04 62.8884 12.18 63.9017 12.18C64.4084 12.18 64.9217 12.1333 65.4417 12.04C65.9751 11.9467 66.4284 11.8267 66.8017 11.68V13.6C66.3617 13.8 65.8484 13.9467 65.2617 14.04C64.6751 14.1467 64.0351 14.2 63.3417 14.2ZM60.5017 8.54H65.0017V8.02C65.0017 7.47333 64.8417 7.04667 64.5217 6.74C64.2017 6.42 63.6617 6.26 62.9017 6.26C62.0084 6.26 61.3817 6.44 61.0217 6.8C60.6751 7.16 60.5017 7.74 60.5017 8.54ZM73.2016 14.2C72.3616 14.2 71.6082 14.0533 70.9416 13.76C70.2882 13.4533 69.7749 12.96 69.4016 12.28C69.0282 11.5867 68.8416 10.6733 68.8416 9.54C68.8416 8.40667 69.0482 7.45333 69.4616 6.68C69.8749 5.90667 70.4282 5.32 71.1216 4.92C71.8149 4.52 72.5749 4.32 73.4016 4.32C74.4416 4.32 75.3282 4.56 76.0616 5.04V0.52H78.7616V14H76.4416L76.2816 13.12C75.8682 13.48 75.4149 13.7533 74.9216 13.94C74.4416 14.1133 73.8682 14.2 73.2016 14.2ZM73.9416 12.22C74.7816 12.22 75.4882 11.9333 76.0616 11.36V7.04C75.5016 6.54667 74.8482 6.3 74.1016 6.3C72.4216 6.3 71.5816 7.38 71.5816 9.54C71.5816 10.5533 71.7882 11.2533 72.2016 11.64C72.6149 12.0267 73.1949 12.22 73.9416 12.22ZM85.433 14V1.12H91.613C93.093 1.12 94.1796 1.51333 94.873 2.3C95.5663 3.07333 95.913 4.12 95.913 5.44C95.913 6.30667 95.6863 7.05333 95.233 7.68C94.793 8.30667 94.1663 8.76 93.353 9.04C93.5663 9.21333 93.733 9.4 93.853 9.6C93.9863 9.8 94.1196 10.0667 94.253 10.4L95.813 14H93.013L91.493 10.54C91.3596 10.2467 91.213 10.04 91.053 9.92C90.893 9.8 90.6263 9.74 90.253 9.74H88.133V14H85.433ZM88.133 7.5H90.913C91.6196 7.5 92.173 7.34667 92.573 7.04C92.973 6.72 93.173 6.18667 93.173 5.44C93.173 4.72 92.9996 4.19333 92.653 3.86C92.3063 3.52667 91.7796 3.36 91.073 3.36H88.133V7.5ZM102.443 14.2C100.803 14.2 99.5033 13.7933 98.5433 12.98C97.5833 12.1533 97.1033 10.9067 97.1033 9.24C97.1033 7.73333 97.5033 6.54 98.3033 5.66C99.1166 4.76667 100.323 4.32 101.923 4.32C103.39 4.32 104.51 4.70667 105.283 5.48C106.07 6.24 106.463 7.24 106.463 8.48V10.2H99.6033C99.7499 10.96 100.097 11.48 100.643 11.76C101.203 12.04 101.99 12.18 103.003 12.18C103.51 12.18 104.023 12.1333 104.543 12.04C105.077 11.9467 105.53 11.8267 105.903 11.68V13.6C105.463 13.8 104.95 13.9467 104.363 14.04C103.777 14.1467 103.137 14.2 102.443 14.2ZM99.6033 8.54H104.103V8.02C104.103 7.47333 103.943 7.04667 103.623 6.74C103.303 6.42 102.763 6.26 102.003 6.26C101.11 6.26 100.483 6.44 100.123 6.8C99.7766 7.16 99.6033 7.74 99.6033 8.54ZM109.545 14L107.045 4.52H109.745L111.185 10.68L112.765 5.74V4.52H114.825L116.625 10.68L118.025 4.52H120.705L118.225 14H115.745L113.925 8.46L112.065 14H109.545ZM124.663 14.2C124.063 14.2 123.503 14.0933 122.983 13.88C122.476 13.6533 122.063 13.3267 121.743 12.9C121.436 12.46 121.283 11.9133 121.283 11.26C121.283 10.3267 121.61 9.58 122.263 9.02C122.93 8.46 123.91 8.18 125.203 8.18H128.003V7.92C128.003 7.33333 127.836 6.92 127.503 6.68C127.183 6.44 126.53 6.32 125.543 6.32C124.463 6.32 123.423 6.48667 122.423 6.82V4.92C122.863 4.74667 123.396 4.60667 124.023 4.5C124.663 4.38 125.356 4.32 126.103 4.32C127.53 4.32 128.63 4.61333 129.403 5.2C130.19 5.77333 130.583 6.7 130.583 7.98V14H128.243L128.103 13.14C127.73 13.4733 127.27 13.7333 126.723 13.92C126.176 14.1067 125.49 14.2 124.663 14.2ZM125.403 12.42C126.003 12.42 126.523 12.32 126.963 12.12C127.403 11.92 127.75 11.6667 128.003 11.36V9.86H125.263C124.21 9.86 123.683 10.2933 123.683 11.16C123.683 12 124.256 12.42 125.403 12.42ZM132.757 14V4.52H135.257L135.377 5.5C135.804 5.23333 136.331 4.99333 136.957 4.78C137.597 4.55333 138.224 4.4 138.837 4.32V6.36C138.477 6.41333 138.084 6.49333 137.657 6.6C137.231 6.70667 136.824 6.82667 136.437 6.96C136.051 7.09333 135.724 7.23333 135.457 7.38V14H132.757ZM143.788 14.2C142.948 14.2 142.194 14.0533 141.528 13.76C140.874 13.4533 140.361 12.96 139.988 12.28C139.614 11.5867 139.428 10.6733 139.428 9.54C139.428 8.40667 139.634 7.45333 140.048 6.68C140.461 5.90667 141.014 5.32 141.708 4.92C142.401 4.52 143.161 4.32 143.988 4.32C145.028 4.32 145.914 4.56 146.648 5.04V0.52H149.348V14H147.028L146.868 13.12C146.454 13.48 146.001 13.7533 145.508 13.94C145.028 14.1133 144.454 14.2 143.788 14.2ZM144.528 12.22C145.368 12.22 146.074 11.9333 146.648 11.36V7.04C146.088 6.54667 145.434 6.3 144.688 6.3C143.008 6.3 142.168 7.38 142.168 9.54C142.168 10.5533 142.374 11.2533 142.788 11.64C143.201 12.0267 143.781 12.22 144.528 12.22ZM154.964 14.2C154.258 14.2 153.584 14.1467 152.944 14.04C152.304 13.9467 151.791 13.8267 151.404 13.68V11.44C151.871 11.6267 152.398 11.7733 152.984 11.88C153.571 11.9733 154.111 12.02 154.604 12.02C155.271 12.02 155.738 11.98 156.004 11.9C156.284 11.82 156.424 11.64 156.424 11.36C156.424 11.04 156.211 10.8067 155.784 10.66C155.371 10.5133 154.751 10.3067 153.924 10.04C153.058 9.74667 152.391 9.39333 151.924 8.98C151.458 8.56667 151.224 7.95333 151.224 7.14C151.224 6.23333 151.551 5.54 152.204 5.06C152.871 4.56667 153.938 4.32 155.404 4.32C155.991 4.32 156.544 4.36667 157.064 4.46C157.584 4.54 158.024 4.64 158.384 4.76V6.98C158.024 6.80667 157.611 6.68 157.144 6.6C156.678 6.50667 156.244 6.46 155.844 6.46C155.271 6.46 154.811 6.5 154.464 6.58C154.131 6.66 153.964 6.83333 153.964 7.1C153.964 7.39333 154.144 7.6 154.504 7.72C154.878 7.84 155.451 8.02 156.224 8.26C156.984 8.48667 157.578 8.73333 158.004 9C158.431 9.26667 158.731 9.58667 158.904 9.96C159.078 10.32 159.164 10.7733 159.164 11.32C159.164 13.24 157.764 14.2 154.964 14.2ZM165.433 14V1.12H171.473C172.486 1.12 173.313 1.31333 173.953 1.7C174.606 2.08667 175.093 2.61333 175.413 3.28C175.733 3.94667 175.893 4.70667 175.893 5.56C175.893 6.42667 175.706 7.19333 175.333 7.86C174.973 8.52667 174.453 9.04667 173.773 9.42C173.106 9.78 172.313 9.96 171.393 9.96H168.133V14H165.433ZM168.133 7.82H170.833C171.606 7.82 172.186 7.62 172.573 7.22C172.973 6.80667 173.173 6.25333 173.173 5.56C173.173 4.81333 172.986 4.24667 172.613 3.86C172.24 3.46 171.68 3.26 170.933 3.26H168.133V7.82ZM180.026 14.2C179.106 14.2 178.433 13.9867 178.006 13.56C177.593 13.1333 177.386 12.4533 177.386 11.52V0.52H180.086V11.3C180.086 11.6333 180.153 11.8667 180.286 12C180.419 12.12 180.613 12.18 180.866 12.18C181.213 12.18 181.526 12.1333 181.806 12.04V13.9C181.299 14.1 180.706 14.2 180.026 14.2ZM186.323 14.2C185.723 14.2 185.163 14.0933 184.643 13.88C184.136 13.6533 183.723 13.3267 183.403 12.9C183.096 12.46 182.943 11.9133 182.943 11.26C182.943 10.3267 183.27 9.58 183.923 9.02C184.59 8.46 185.57 8.18 186.863 8.18H189.663V7.92C189.663 7.33333 189.496 6.92 189.163 6.68C188.843 6.44 188.19 6.32 187.203 6.32C186.123 6.32 185.083 6.48667 184.083 6.82V4.92C184.523 4.74667 185.056 4.60667 185.683 4.5C186.323 4.38 187.016 4.32 187.763 4.32C189.19 4.32 190.29 4.61333 191.063 5.2C191.85 5.77333 192.243 6.7 192.243 7.98V14H189.903L189.763 13.14C189.39 13.4733 188.93 13.7333 188.383 13.92C187.836 14.1067 187.15 14.2 186.323 14.2ZM187.063 12.42C187.663 12.42 188.183 12.32 188.623 12.12C189.063 11.92 189.41 11.6667 189.663 11.36V9.86H186.923C185.87 9.86 185.343 10.2933 185.343 11.16C185.343 12 185.916 12.42 187.063 12.42ZM198.177 14.2C197.084 14.2 196.271 13.9133 195.737 13.34C195.217 12.7667 194.957 11.9867 194.957 11V6.6H193.617V4.52H194.957V2.48L197.657 1.68V4.52H200.057L199.897 6.6H197.657V10.82C197.657 11.34 197.777 11.7 198.017 11.9C198.257 12.0867 198.631 12.18 199.137 12.18C199.511 12.18 199.897 12.1133 200.297 11.98V13.84C200.004 13.96 199.684 14.0467 199.337 14.1C198.991 14.1667 198.604 14.2 198.177 14.2ZM202.183 14V6.6H200.863V4.52H202.183V3.56C202.183 2.57333 202.463 1.76667 203.023 1.14C203.583 0.513333 204.41 0.199999 205.503 0.199999C205.943 0.199999 206.336 0.233332 206.683 0.299999C207.03 0.366666 207.35 0.46 207.643 0.58V2.44C207.443 2.37333 207.25 2.32 207.063 2.28C206.876 2.24 206.67 2.22 206.443 2.22C205.87 2.22 205.463 2.32667 205.223 2.54C204.996 2.74 204.883 3.09333 204.883 3.6V4.52H207.283L207.163 6.6H204.883V14H202.183ZM213.142 14.2C211.368 14.2 210.068 13.7733 209.242 12.92C208.415 12.0533 208.002 10.8333 208.002 9.26C208.002 7.68667 208.415 6.47333 209.242 5.62C210.082 4.75333 211.382 4.32 213.142 4.32C214.915 4.32 216.215 4.75333 217.042 5.62C217.882 6.47333 218.302 7.68667 218.302 9.26C218.302 10.8333 217.888 12.0533 217.062 12.92C216.235 13.7733 214.928 14.2 213.142 14.2ZM213.142 11.9C214.008 11.9 214.628 11.7067 215.002 11.32C215.375 10.92 215.562 10.2333 215.562 9.26C215.562 8.28667 215.375 7.60667 215.002 7.22C214.628 6.82 214.008 6.62 213.142 6.62C212.288 6.62 211.675 6.82 211.302 7.22C210.928 7.60667 210.742 8.28667 210.742 9.26C210.742 10.2333 210.928 10.92 211.302 11.32C211.675 11.7067 212.288 11.9 213.142 11.9ZM220.179 14V4.52H222.679L222.799 5.5C223.226 5.23333 223.752 4.99333 224.379 4.78C225.019 4.55333 225.646 4.4 226.259 4.32V6.36C225.899 6.41333 225.506 6.49333 225.079 6.6C224.652 6.70667 224.246 6.82667 223.859 6.96C223.472 7.09333 223.146 7.23333 222.879 7.38V14H220.179ZM227.64 14V4.52H230.14L230.24 5.44C230.693 5.09333 231.187 4.82 231.72 4.62C232.267 4.42 232.853 4.32 233.48 4.32C234.147 4.32 234.66 4.42 235.02 4.62C235.393 4.82 235.68 5.10667 235.88 5.48C236.32 5.13333 236.82 4.85333 237.38 4.64C237.953 4.42667 238.627 4.32 239.4 4.32C240.493 4.32 241.3 4.60667 241.82 5.18C242.34 5.74 242.6 6.6 242.6 7.76V14H239.94V8.06C239.94 7.43333 239.807 6.98667 239.54 6.72C239.273 6.44 238.847 6.3 238.26 6.3C237.46 6.3 236.793 6.58667 236.26 7.16C236.327 7.38667 236.36 7.66 236.36 7.98V14H233.84V8.06C233.84 7.47333 233.74 7.03333 233.54 6.74C233.34 6.44667 232.953 6.3 232.38 6.3C231.98 6.3 231.6 6.40667 231.24 6.62C230.893 6.82 230.58 7.05333 230.3 7.32V14H227.64Z" fill="white"/>
</svg>
