<svg width="578" height="160" viewBox="0 0 578 160" fill="none" xmlns="http://www.w3.org/2000/svg">
<path d="M193.201 31V0.0879974H210.865C214.001 0.0879974 216.417 0.839998 218.113 2.344C219.809 3.848 220.657 5.976 220.657 8.728C220.657 10.296 220.369 11.624 219.793 12.712C219.249 13.8 218.513 14.664 217.585 15.304C218.865 15.848 219.873 16.6 220.609 17.56C221.345 18.488 221.713 19.88 221.713 21.736C221.713 24.648 220.785 26.92 218.929 28.552C217.073 30.184 214.481 31 211.153 31H193.201ZM202.993 12.184H208.081C209.937 12.184 210.865 11.352 210.865 9.688C210.865 8.888 210.625 8.28 210.145 7.864C209.697 7.416 208.961 7.192 207.937 7.192H202.993V12.184ZM202.993 23.944H208.273C210.225 23.944 211.201 23.048 211.201 21.256C211.201 19.592 210.193 18.76 208.177 18.76H202.993V23.944ZM239.142 31.48C236.262 31.48 233.686 31 231.414 30.04C229.142 29.08 227.35 27.672 226.038 25.816C224.758 23.96 224.118 21.672 224.118 18.952V0.0879974H234.438V17.752C234.438 21.08 236.006 22.744 239.142 22.744C242.278 22.744 243.846 21.08 243.846 17.752V0.0879974H254.166V18.952C254.166 21.672 253.51 23.96 252.198 25.816C250.918 27.672 249.142 29.08 246.87 30.04C244.63 31 242.054 31.48 239.142 31.48ZM257.529 31V0.0879974H267.849V31H257.529ZM271.436 31V0.0879974H281.756V23.128H295.004V31H271.436ZM299.647 31V7.624H291.391V0.0879974H318.271V7.624H309.967V31H299.647ZM569.023 31V23.704H577.039V31H569.023ZM124.842 95V64.088H139.098C142.33 64.088 145.098 64.616 147.402 65.672C149.706 66.696 151.482 68.36 152.73 70.664C153.978 72.936 154.602 75.96 154.602 79.736C154.602 85.08 153.242 88.968 150.522 91.4C147.802 93.8 143.994 95 139.098 95H124.842ZM135.162 87.128H137.85C139.162 87.128 140.282 86.936 141.21 86.552C142.138 86.168 142.842 85.448 143.322 84.392C143.834 83.336 144.09 81.784 144.09 79.736C144.09 77.688 143.866 76.136 143.418 75.08C142.97 74.024 142.282 73.304 141.354 72.92C140.426 72.504 139.258 72.296 137.85 72.296H135.162V87.128ZM157.217 95V64.088H173.921C176.513 64.088 178.641 64.584 180.305 65.576C182.001 66.536 183.249 67.864 184.049 69.56C184.881 71.256 185.297 73.192 185.297 75.368C185.297 77.448 184.769 79.288 183.713 80.888C182.657 82.456 181.329 83.704 179.729 84.632C180.337 85.112 180.849 85.816 181.265 86.744L184.865 95H174.113L170.945 87.848C170.721 87.368 170.481 87.032 170.225 86.84C169.969 86.648 169.569 86.552 169.025 86.552H167.537V95H157.217ZM167.537 78.584H171.329C173.633 78.584 174.785 77.512 174.785 75.368C174.785 73.192 173.713 72.104 171.569 72.104H167.537V78.584ZM187.904 95V64.088H198.224V95H187.904ZM212.707 95L200.851 64.088H211.603L218.083 82.904L224.611 64.088H235.411L223.507 95H212.707ZM238.029 95V64.088H262.077V71.72H248.349V75.656H260.301V83.48H248.349V87.368H262.077V95H238.029ZM264.451 95V64.088H273.139L283.315 78.344V64.088H293.635V95H284.851L274.771 80.792V95H264.451ZM306.842 95V64.088H324.506C327.642 64.088 330.058 64.84 331.754 66.344C333.45 67.848 334.298 69.976 334.298 72.728C334.298 74.296 334.01 75.624 333.434 76.712C332.89 77.8 332.154 78.664 331.226 79.304C332.506 79.848 333.514 80.6 334.25 81.56C334.986 82.488 335.354 83.88 335.354 85.736C335.354 88.648 334.426 90.92 332.57 92.552C330.714 94.184 328.122 95 324.794 95H306.842ZM316.634 76.184H321.722C323.578 76.184 324.506 75.352 324.506 73.688C324.506 72.888 324.266 72.28 323.786 71.864C323.338 71.416 322.602 71.192 321.578 71.192H316.634V76.184ZM316.634 87.944H321.914C323.866 87.944 324.842 87.048 324.842 85.256C324.842 83.592 323.834 82.76 321.818 82.76H316.634V87.944ZM344.565 95V83.72L333.429 64.088H344.181L349.749 74.84L355.317 64.088H366.069L354.885 83.72V95H344.565ZM569.023 95V87.704H577.039V95H569.023ZM0.38875 159V128.088H17.0448C19.6368 128.088 21.7648 128.616 23.4288 129.672C25.1248 130.728 26.3888 132.152 27.2208 133.944C28.0528 135.704 28.4688 137.656 28.4688 139.8C28.4688 142.008 27.9888 143.992 27.0288 145.752C26.0688 147.512 24.7248 148.904 22.9968 149.928C21.2688 150.92 19.2208 151.416 16.8528 151.416H10.7088V159H0.38875ZM10.7088 143.4H14.4528C15.6048 143.4 16.4688 143.08 17.0448 142.44C17.6528 141.768 17.9568 140.888 17.9568 139.8C17.9568 138.648 17.6848 137.752 17.1408 137.112C16.5968 136.44 15.7648 136.104 14.6448 136.104H10.7088V143.4ZM45.3548 159.48C41.8988 159.48 38.9708 158.952 36.5708 157.896C34.1708 156.84 32.3308 155.144 31.0508 152.808C29.8028 150.472 29.1788 147.4 29.1788 143.592C29.1788 139.72 29.8028 136.616 31.0508 134.28C32.3308 131.944 34.1708 130.248 36.5708 129.192C38.9708 128.136 41.8988 127.608 45.3548 127.608C48.8108 127.608 51.7388 128.136 54.1388 129.192C56.5388 130.248 58.3628 131.944 59.6108 134.28C60.8908 136.616 61.5308 139.72 61.5308 143.592C61.5308 147.4 60.8908 150.472 59.6108 152.808C58.3628 155.144 56.5388 156.84 54.1388 157.896C51.7388 158.952 48.8108 159.48 45.3548 159.48ZM45.3548 150.744C47.3388 150.744 48.7628 150.184 49.6268 149.064C50.5228 147.944 50.9708 146.12 50.9708 143.592C50.9708 140.936 50.5228 139.08 49.6268 138.024C48.7628 136.936 47.3388 136.392 45.3548 136.392C43.3388 136.392 41.8828 136.936 40.9868 138.024C40.1228 139.08 39.6908 140.936 39.6908 143.592C39.6908 146.12 40.1228 147.944 40.9868 149.064C41.8828 150.184 43.3388 150.744 45.3548 150.744ZM69.4569 159L62.2569 128.088H72.3369L75.2649 142.2L77.8569 133.032V128.088H86.2569L90.3369 142.248L93.5049 128.088H103.585L96.4329 159H87.2649L83.0889 144.936L78.5769 159H69.4569ZM106.233 159V128.088H130.281V135.72H116.553V139.656H128.505V147.48H116.553V151.368H130.281V159H106.233ZM132.654 159V128.088H149.358C151.95 128.088 154.078 128.584 155.742 129.576C157.438 130.536 158.686 131.864 159.486 133.56C160.318 135.256 160.734 137.192 160.734 139.368C160.734 141.448 160.206 143.288 159.15 144.888C158.094 146.456 156.766 147.704 155.166 148.632C155.774 149.112 156.286 149.816 156.702 150.744L160.302 159H149.55L146.382 151.848C146.158 151.368 145.918 151.032 145.662 150.84C145.406 150.648 145.006 150.552 144.462 150.552H142.974V159H132.654ZM142.974 142.584H146.766C149.07 142.584 150.222 141.512 150.222 139.368C150.222 137.192 149.15 136.104 147.006 136.104H142.974V142.584ZM163.342 159V128.088H187.39V135.72H173.662V139.656H185.614V147.48H173.662V151.368H187.39V159H163.342ZM189.764 159V128.088H204.02C207.252 128.088 210.02 128.616 212.324 129.672C214.628 130.696 216.404 132.36 217.652 134.664C218.9 136.936 219.524 139.96 219.524 143.736C219.524 149.08 218.164 152.968 215.444 155.4C212.724 157.8 208.916 159 204.02 159H189.764ZM200.084 151.128H202.772C204.084 151.128 205.204 150.936 206.132 150.552C207.06 150.168 207.764 149.448 208.244 148.392C208.756 147.336 209.012 145.784 209.012 143.736C209.012 141.688 208.788 140.136 208.34 139.08C207.892 138.024 207.204 137.304 206.276 136.92C205.348 136.504 204.18 136.296 202.772 136.296H200.084V151.128ZM231.733 159V128.088H249.397C252.533 128.088 254.949 128.84 256.645 130.344C258.341 131.848 259.189 133.976 259.189 136.728C259.189 138.296 258.901 139.624 258.325 140.712C257.781 141.8 257.045 142.664 256.117 143.304C257.397 143.848 258.405 144.6 259.141 145.56C259.877 146.488 260.245 147.88 260.245 149.736C260.245 152.648 259.317 154.92 257.461 156.552C255.605 158.184 253.013 159 249.685 159H231.733ZM241.525 140.184H246.613C248.469 140.184 249.397 139.352 249.397 137.688C249.397 136.888 249.157 136.28 248.677 135.864C248.229 135.416 247.493 135.192 246.469 135.192H241.525V140.184ZM241.525 151.944H246.805C248.757 151.944 249.733 151.048 249.733 149.256C249.733 147.592 248.725 146.76 246.709 146.76H241.525V151.944ZM269.455 159V147.72L258.319 128.088H269.071L274.639 138.84L280.207 128.088H290.959L279.775 147.72V159H269.455ZM569.023 159V151.704H577.039V159H569.023Z" fill="white"/>
<path d="M329.514 31V0.0879974H343.77C347.002 0.0879974 349.77 0.615998 352.074 1.672C354.378 2.696 356.154 4.36 357.402 6.664C358.65 8.936 359.274 11.96 359.274 15.736C359.274 21.08 357.914 24.968 355.194 27.4C352.474 29.8 348.666 31 343.77 31H329.514ZM339.834 23.128H342.522C343.834 23.128 344.954 22.936 345.882 22.552C346.81 22.168 347.514 21.448 347.994 20.392C348.506 19.336 348.762 17.784 348.762 15.736C348.762 13.688 348.538 12.136 348.09 11.08C347.642 10.024 346.954 9.304 346.026 8.92C345.098 8.504 343.93 8.296 342.522 8.296H339.834V23.128ZM361.889 31V0.0879974H372.209V31H361.889ZM375.795 31V0.0879974H399.747V7.624H386.115V11.704H397.923V19.432H386.115V31H375.795ZM401.42 31V0.0879974H425.372V7.624H411.74V11.704H423.548V19.432H411.74V31H401.42ZM427.045 31V0.0879974H451.093V7.72H437.365V11.656H449.317V19.48H437.365V23.368H451.093V31H427.045ZM453.467 31V0.0879974H470.171C472.763 0.0879974 474.891 0.583998 476.555 1.576C478.251 2.536 479.499 3.864 480.299 5.56C481.131 7.256 481.547 9.192 481.547 11.368C481.547 13.448 481.019 15.288 479.963 16.888C478.907 18.456 477.579 19.704 475.979 20.632C476.587 21.112 477.099 21.816 477.515 22.744L481.115 31H470.363L467.195 23.848C466.971 23.368 466.731 23.032 466.475 22.84C466.219 22.648 465.819 22.552 465.275 22.552H463.787V31H453.467ZM463.787 14.584H467.579C469.883 14.584 471.035 13.512 471.035 11.368C471.035 9.192 469.963 8.104 467.819 8.104H463.787V14.584ZM484.154 31V0.0879974H508.202V7.72H494.474V11.656H506.426V19.48H494.474V23.368H508.202V31H484.154ZM510.576 31V0.0879974H519.264L529.44 14.344V0.0879974H539.76V31H530.976L520.896 16.792V31H510.576ZM549.709 31V7.624H541.453V0.0879974H568.333V7.624H560.029V31H549.709ZM378.279 95V64.088H394.983C397.575 64.088 399.703 64.584 401.367 65.576C403.063 66.536 404.311 67.864 405.111 69.56C405.943 71.256 406.359 73.192 406.359 75.368C406.359 77.448 405.831 79.288 404.775 80.888C403.719 82.456 402.391 83.704 400.791 84.632C401.399 85.112 401.911 85.816 402.327 86.744L405.927 95H395.175L392.007 87.848C391.783 87.368 391.543 87.032 391.287 86.84C391.031 86.648 390.631 86.552 390.087 86.552H388.599V95H378.279ZM388.599 78.584H392.391C394.695 78.584 395.847 77.512 395.847 75.368C395.847 73.192 394.775 72.104 392.631 72.104H388.599V78.584ZM408.967 95V64.088H433.015V71.72H419.287V75.656H431.239V83.48H419.287V87.368H433.015V95H408.967ZM445.805 95.48C443.661 95.48 441.613 95.304 439.661 94.952C437.741 94.6 436.109 94.104 434.765 93.464V85.4C436.269 86.104 437.917 86.68 439.709 87.128C441.533 87.576 443.197 87.8 444.701 87.8C445.981 87.8 446.957 87.672 447.629 87.416C448.333 87.16 448.685 86.68 448.685 85.976C448.685 85.176 448.157 84.6 447.101 84.248C446.045 83.864 444.525 83.336 442.541 82.664C440.493 81.96 438.877 81.208 437.693 80.408C436.541 79.576 435.709 78.584 435.197 77.432C434.685 76.248 434.429 74.808 434.429 73.112C434.429 66.776 438.829 63.608 447.629 63.608C448.717 63.608 449.869 63.688 451.085 63.848C452.333 63.976 453.517 64.152 454.637 64.376C455.789 64.568 456.765 64.792 457.565 65.048V73.16C455.933 72.52 454.429 72.072 453.053 71.816C451.709 71.528 450.477 71.384 449.357 71.384C448.237 71.384 447.213 71.48 446.285 71.672C445.389 71.832 444.941 72.28 444.941 73.016C444.941 73.624 445.341 74.088 446.141 74.408C446.941 74.696 448.285 75.096 450.173 75.608C452.701 76.312 454.605 77.144 455.885 78.104C457.197 79.064 458.077 80.2 458.525 81.512C459.005 82.792 459.245 84.264 459.245 85.928C459.245 88.808 458.125 91.128 455.885 92.888C453.645 94.616 450.285 95.48 445.805 95.48ZM476.642 95.48C473.762 95.48 471.186 95 468.914 94.04C466.642 93.08 464.85 91.672 463.538 89.816C462.258 87.96 461.618 85.672 461.618 82.952V64.088H471.938V81.752C471.938 85.08 473.506 86.744 476.642 86.744C479.778 86.744 481.346 85.08 481.346 81.752V64.088H491.666V82.952C491.666 85.672 491.01 87.96 489.698 89.816C488.418 91.672 486.642 93.08 484.37 94.04C482.13 95 479.554 95.48 476.642 95.48ZM495.029 95V64.088H505.349V87.128H518.597V95H495.029ZM523.24 95V71.624H514.984V64.088H541.864V71.624H533.56V95H523.24ZM553.93 95.48C551.786 95.48 549.738 95.304 547.786 94.952C545.866 94.6 544.234 94.104 542.89 93.464V85.4C544.394 86.104 546.042 86.68 547.834 87.128C549.658 87.576 551.322 87.8 552.826 87.8C554.106 87.8 555.082 87.672 555.754 87.416C556.458 87.16 556.81 86.68 556.81 85.976C556.81 85.176 556.282 84.6 555.226 84.248C554.17 83.864 552.65 83.336 550.666 82.664C548.618 81.96 547.002 81.208 545.818 80.408C544.666 79.576 543.834 78.584 543.322 77.432C542.81 76.248 542.554 74.808 542.554 73.112C542.554 66.776 546.954 63.608 555.754 63.608C556.842 63.608 557.994 63.688 559.21 63.848C560.458 63.976 561.642 64.152 562.762 64.376C563.914 64.568 564.89 64.792 565.69 65.048V73.16C564.058 72.52 562.554 72.072 561.178 71.816C559.834 71.528 558.602 71.384 557.482 71.384C556.362 71.384 555.338 71.48 554.41 71.672C553.514 71.832 553.066 72.28 553.066 73.016C553.066 73.624 553.466 74.088 554.266 74.408C555.066 74.696 556.41 75.096 558.298 75.608C560.826 76.312 562.73 77.144 564.01 78.104C565.322 79.064 566.202 80.2 566.65 81.512C567.13 82.792 567.37 84.264 567.37 85.928C567.37 88.808 566.25 91.128 564.01 92.888C561.77 94.616 558.41 95.48 553.93 95.48ZM319.634 159.48C313.97 159.48 309.65 158.136 306.674 155.448C303.698 152.76 302.21 148.84 302.21 143.688C302.21 138.472 303.762 134.488 306.866 131.736C309.97 128.984 314.466 127.608 320.354 127.608C322.338 127.608 324.098 127.72 325.634 127.944C327.202 128.168 328.706 128.52 330.146 129V137.784C328.674 137.24 327.186 136.872 325.682 136.68C324.178 136.456 322.642 136.344 321.074 136.344C318.45 136.344 316.402 136.904 314.93 138.024C313.458 139.144 312.722 141.032 312.722 143.688C312.722 146.248 313.298 148.072 314.45 149.16C315.634 150.216 317.346 150.744 319.586 150.744C320.962 150.744 322.178 150.584 323.234 150.264V147.096H317.618V140.808H331.826V156.552C330.578 157.352 328.946 158.04 326.93 158.616C324.914 159.192 322.482 159.48 319.634 159.48ZM349.683 159.48C346.227 159.48 343.299 158.952 340.899 157.896C338.499 156.84 336.659 155.144 335.379 152.808C334.131 150.472 333.507 147.4 333.507 143.592C333.507 139.72 334.131 136.616 335.379 134.28C336.659 131.944 338.499 130.248 340.899 129.192C343.299 128.136 346.227 127.608 349.683 127.608C353.139 127.608 356.067 128.136 358.467 129.192C360.867 130.248 362.691 131.944 363.939 134.28C365.219 136.616 365.859 139.72 365.859 143.592C365.859 147.4 365.219 150.472 363.939 152.808C362.691 155.144 360.867 156.84 358.467 157.896C356.067 158.952 353.139 159.48 349.683 159.48ZM349.683 150.744C351.667 150.744 353.091 150.184 353.955 149.064C354.851 147.944 355.299 146.12 355.299 143.592C355.299 140.936 354.851 139.08 353.955 138.024C353.091 136.936 351.667 136.392 349.683 136.392C347.667 136.392 346.211 136.936 345.315 138.024C344.451 139.08 344.019 140.936 344.019 143.592C344.019 146.12 344.451 147.944 345.315 149.064C346.211 150.184 347.667 150.744 349.683 150.744ZM383.699 159.48C380.243 159.48 377.315 158.952 374.915 157.896C372.515 156.84 370.675 155.144 369.395 152.808C368.147 150.472 367.523 147.4 367.523 143.592C367.523 139.72 368.147 136.616 369.395 134.28C370.675 131.944 372.515 130.248 374.915 129.192C377.315 128.136 380.243 127.608 383.699 127.608C387.155 127.608 390.083 128.136 392.483 129.192C394.883 130.248 396.707 131.944 397.955 134.28C399.235 136.616 399.875 139.72 399.875 143.592C399.875 147.4 399.235 150.472 397.955 152.808C396.707 155.144 394.883 156.84 392.483 157.896C390.083 158.952 387.155 159.48 383.699 159.48ZM383.699 150.744C385.683 150.744 387.107 150.184 387.971 149.064C388.867 147.944 389.315 146.12 389.315 143.592C389.315 140.936 388.867 139.08 387.971 138.024C387.107 136.936 385.683 136.392 383.699 136.392C381.683 136.392 380.227 136.936 379.331 138.024C378.467 139.08 378.035 140.936 378.035 143.592C378.035 146.12 378.467 147.944 379.331 149.064C380.227 150.184 381.683 150.744 383.699 150.744ZM402.498 159V128.088H416.754C419.986 128.088 422.754 128.616 425.058 129.672C427.362 130.696 429.138 132.36 430.386 134.664C431.634 136.936 432.258 139.96 432.258 143.736C432.258 149.08 430.898 152.968 428.178 155.4C425.458 157.8 421.65 159 416.754 159H402.498ZM412.818 151.128H415.506C416.818 151.128 417.938 150.936 418.866 150.552C419.794 150.168 420.498 149.448 420.978 148.392C421.49 147.336 421.746 145.784 421.746 143.736C421.746 141.688 421.522 140.136 421.074 139.08C420.626 138.024 419.938 137.304 419.01 136.92C418.082 136.504 416.914 136.296 415.506 136.296H412.818V151.128ZM455.363 159L443.507 128.088H454.259L460.739 146.904L467.267 128.088H478.067L466.163 159H455.363ZM489.174 159V147.72L478.038 128.088H488.79L494.358 138.84L499.926 128.088H510.678L499.494 147.72V159H489.174ZM512.358 159V128.088H530.022C533.158 128.088 535.574 128.84 537.27 130.344C538.966 131.848 539.814 133.976 539.814 136.728C539.814 138.296 539.526 139.624 538.95 140.712C538.406 141.8 537.67 142.664 536.742 143.304C538.022 143.848 539.03 144.6 539.766 145.56C540.502 146.488 540.87 147.88 540.87 149.736C540.87 152.648 539.942 154.92 538.086 156.552C536.23 158.184 533.638 159 530.31 159H512.358ZM522.15 140.184H527.238C529.094 140.184 530.022 139.352 530.022 137.688C530.022 136.888 529.782 136.28 529.302 135.864C528.854 135.416 528.118 135.192 527.094 135.192H522.15V140.184ZM522.15 151.944H527.43C529.382 151.944 530.358 151.048 530.358 149.256C530.358 147.592 529.35 146.76 527.334 146.76H522.15V151.944ZM553.93 159.48C551.786 159.48 549.738 159.304 547.786 158.952C545.866 158.6 544.234 158.104 542.89 157.464V149.4C544.394 150.104 546.042 150.68 547.834 151.128C549.658 151.576 551.322 151.8 552.826 151.8C554.106 151.8 555.082 151.672 555.754 151.416C556.458 151.16 556.81 150.68 556.81 149.976C556.81 149.176 556.282 148.6 555.226 148.248C554.17 147.864 552.65 147.336 550.666 146.664C548.618 145.96 547.002 145.208 545.818 144.408C544.666 143.576 543.834 142.584 543.322 141.432C542.81 140.248 542.554 138.808 542.554 137.112C542.554 130.776 546.954 127.608 555.754 127.608C556.842 127.608 557.994 127.688 559.21 127.848C560.458 127.976 561.642 128.152 562.762 128.376C563.914 128.568 564.89 128.792 565.69 129.048V137.16C564.058 136.52 562.554 136.072 561.178 135.816C559.834 135.528 558.602 135.384 557.482 135.384C556.362 135.384 555.338 135.48 554.41 135.672C553.514 135.832 553.066 136.28 553.066 137.016C553.066 137.624 553.466 138.088 554.266 138.408C555.066 138.696 556.41 139.096 558.298 139.608C560.826 140.312 562.73 141.144 564.01 142.104C565.322 143.064 566.202 144.2 566.65 145.512C567.13 146.792 567.37 148.264 567.37 149.928C567.37 152.808 566.25 155.128 564.01 156.888C561.77 158.616 558.41 159.48 553.93 159.48Z" fill="#FED846"/>
</svg>
