<svg width="170" height="173" viewBox="0 0 170 173" fill="none" xmlns="http://www.w3.org/2000/svg">
<g clip-path="url(#clip0_40_1388)">
<circle cx="85" cy="87.8953" r="85" fill="#5E69FF"/>
<mask id="mask0_40_1388" style="mask-type:alpha" maskUnits="userSpaceOnUse" x="0" y="2" width="170" height="171">
<circle cx="85" cy="87.8953" r="85" fill="#4951EC"/>
</mask>
<g mask="url(#mask0_40_1388)">
<path d="M73.6603 123.963L138.549 7.92211L148.603 89.6539L197.868 98.2618L118.302 223.296L117.507 140.581L73.6603 123.963Z" fill="black" fill-opacity="0.12"/>
<rect x="39.9202" y="48.7899" width="90.5089" height="163.482" rx="15.4792" fill="#F6F6FB" fill-opacity="0.9" stroke="#121119" stroke-width="3.80192"/>
<path d="M102.031 55.6371H71.5188C69.7511 55.6371 68.3182 54.2042 68.3182 52.4366C68.3182 50.6689 66.8852 49.236 65.1176 49.236H108.432C106.665 49.236 105.232 50.6689 105.232 52.4366C105.232 54.2042 103.799 55.6371 102.031 55.6371Z" fill="black" stroke="#121119" stroke-width="1.62939"/>
<rect x="44.5366" y="84.9081" width="81.4697" height="45.623" rx="6.51757" fill="black" fill-opacity="0.16"/>
<rect x="29.3291" y="81.1061" width="111.342" height="46.7093" rx="6.51757" fill="#F6FFD8"/>
<rect x="0.234285" y="0.244671" width="27.0221" height="14.965" rx="1.31356" transform="matrix(1 0 -0.0433514 0.99906 41.7862 98.2673)" fill="#25B208"/>
<rect x="0.234285" y="0.244671" width="27.0221" height="14.965" rx="1.31356" transform="matrix(1 0 -0.0433514 0.99906 41.7862 98.2673)" stroke="black" stroke-width="0.489803"/>
<rect x="0.234285" y="0.244671" width="27.0221" height="14.965" rx="1.31356" transform="matrix(1 0 -0.0433514 0.99906 41.7862 98.2673)" stroke="black" stroke-opacity="0.2" stroke-width="0.489803"/>
<rect width="22.0095" height="11.8184" transform="matrix(1 0 -0.0433514 0.99906 44.448 100.084)" fill="#D9FC60"/>
<path d="M48.7422 106.382C49.2387 106.382 49.6582 105.988 49.6792 105.503C49.7003 105.018 49.3149 104.625 48.8184 104.625C48.3219 104.625 47.9024 105.018 47.8813 105.503C47.8603 105.988 48.2457 106.382 48.7422 106.382Z" fill="#25B208"/>
<path d="M60.9755 106.448C61.4903 106.448 61.9254 106.04 61.9473 105.536C61.9691 105.033 61.5694 104.625 61.0546 104.625C60.5397 104.625 60.1046 105.033 60.0828 105.536C60.0609 106.04 60.4606 106.448 60.9755 106.448Z" fill="#25B208"/>
<path d="M58.9599 105.314C58.87 107.386 57.1782 109.159 54.802 109.441C52.6097 109.706 50.8982 108.098 50.9881 106.027C51.078 103.955 52.921 102.149 55.1271 101.95C57.3332 101.751 59.0505 103.226 58.9606 105.297L58.9599 105.314Z" fill="#25B208"/>
<path d="M53.3687 106.408C53.9529 106.756 54.4112 106.938 54.9272 106.938C55.2602 106.938 55.4303 106.855 55.4382 106.673C55.4641 106.077 52.946 106.176 53.0179 104.519C53.0574 103.607 53.8658 103.011 55.1143 103.011C55.9467 103.011 56.499 103.325 56.945 103.789L56.1585 104.651C55.7379 104.37 55.4281 104.22 54.9619 104.22C54.6456 104.22 54.4748 104.32 54.4669 104.502C54.4454 104.999 56.9606 104.966 56.8915 106.557C56.8534 107.435 56.09 108.148 54.6417 108.148C54.0424 108.148 53.1875 107.9 52.659 107.419L53.3695 106.391L53.3687 106.408ZM54.5965 101.9L55.5953 101.9L55.527 103.475L54.5282 103.475L54.5965 101.9ZM55.3515 107.518L55.2688 109.424L54.27 109.424L54.3527 107.518L55.3515 107.518Z" fill="#F2FFEA"/>
<ellipse cx="2.75119" cy="2.27277" rx="2.75119" ry="2.27277" transform="matrix(1 0 -0.0433514 0.99906 42.6533 99.1753)" fill="#25B208"/>
<ellipse cx="2.29265" cy="2.27277" rx="2.29265" ry="2.27277" transform="matrix(1 0 -0.0433514 0.99906 43.1763 108.258)" fill="#25B208"/>
<ellipse cx="2.29265" cy="2.27277" rx="2.29265" ry="2.27277" transform="matrix(1 0 -0.0433514 0.99906 62.8286 99.1753)" fill="#25B208"/>
<ellipse cx="2.29265" cy="2.27277" rx="2.29265" ry="2.27277" transform="matrix(1 0 -0.0433514 0.99906 62.4346 108.258)" fill="#25B208"/>
<rect x="0.234285" y="0.244671" width="27.0221" height="14.965" rx="1.31356" transform="matrix(1 0 -0.0433514 0.99906 41.7862 97.3584)" fill="#25B208"/>
<rect x="0.234285" y="0.244671" width="27.0221" height="14.965" rx="1.31356" transform="matrix(1 0 -0.0433514 0.99906 41.7862 97.3584)" stroke="black" stroke-width="0.489803"/>
<rect x="0.234285" y="0.244671" width="27.0221" height="14.965" rx="1.31356" transform="matrix(1 0 -0.0433514 0.99906 41.7862 97.3584)" stroke="black" stroke-opacity="0.2" stroke-width="0.489803"/>
<rect width="22.0095" height="11.8184" transform="matrix(1 0 -0.0433514 0.99906 44.448 99.1747)" fill="#D9FC60"/>
<path d="M48.7422 105.473C49.2387 105.473 49.6582 105.079 49.6792 104.594C49.7003 104.109 49.3149 103.716 48.8184 103.716C48.3219 103.716 47.9024 104.109 47.8813 104.594C47.8603 105.079 48.2457 105.473 48.7422 105.473Z" fill="#25B208"/>
<path d="M60.9755 105.539C61.4903 105.539 61.9254 105.131 61.9473 104.627C61.9691 104.124 61.5694 103.716 61.0546 103.716C60.5397 103.716 60.1046 104.124 60.0828 104.627C60.0609 105.131 60.4606 105.539 60.9755 105.539Z" fill="#25B208"/>
<path d="M58.9599 104.405C58.87 106.477 57.1782 108.25 54.802 108.532C52.6097 108.797 50.8982 107.189 50.9881 105.118C51.078 103.046 52.921 101.24 55.1271 101.041C57.3332 100.842 59.0505 102.317 58.9606 104.389L58.9599 104.405Z" fill="#25B208"/>
<path d="M53.3687 105.499C53.9529 105.847 54.4112 106.029 54.9272 106.029C55.2602 106.029 55.4303 105.947 55.4382 105.764C55.4641 105.168 52.946 105.267 53.0179 103.61C53.0574 102.698 53.8658 102.102 55.1143 102.102C55.9467 102.102 56.499 102.416 56.945 102.881L56.1585 103.742C55.7379 103.461 55.4281 103.311 54.9619 103.311C54.6456 103.311 54.4748 103.411 54.4669 103.593C54.4454 104.09 56.9606 104.057 56.8915 105.648C56.8534 106.527 56.09 107.239 54.6417 107.239C54.0424 107.239 53.1875 106.991 52.659 106.51L53.3695 105.482L53.3687 105.499ZM54.5965 100.991L55.5953 100.991L55.527 102.566L54.5282 102.566L54.5965 100.991ZM55.3515 106.609L55.2688 108.515L54.27 108.515L54.3527 106.609L55.3515 106.609Z" fill="#F2FFEA"/>
<ellipse cx="2.75119" cy="2.27277" rx="2.75119" ry="2.27277" transform="matrix(1 0 -0.0433514 0.99906 42.6533 98.2664)" fill="#25B208"/>
<ellipse cx="2.29265" cy="2.27277" rx="2.29265" ry="2.27277" transform="matrix(1 0 -0.0433514 0.99906 43.1763 107.349)" fill="#25B208"/>
<ellipse cx="2.29265" cy="2.27277" rx="2.29265" ry="2.27277" transform="matrix(1 0 -0.0433514 0.99906 62.8286 98.2664)" fill="#25B208"/>
<ellipse cx="2.29265" cy="2.27277" rx="2.29265" ry="2.27277" transform="matrix(1 0 -0.0433514 0.99906 62.4346 107.349)" fill="#25B208"/>
<rect x="0.234285" y="0.244671" width="27.0221" height="14.965" rx="1.31356" transform="matrix(1 0 -0.0433514 0.99906 41.7862 95.8929)" fill="#25B208"/>
<rect x="0.234285" y="0.244671" width="27.0221" height="14.965" rx="1.31356" transform="matrix(1 0 -0.0433514 0.99906 41.7862 95.8929)" stroke="black" stroke-width="0.489803"/>
<rect x="0.234285" y="0.244671" width="27.0221" height="14.965" rx="1.31356" transform="matrix(1 0 -0.0433514 0.99906 41.7862 95.8929)" stroke="black" stroke-opacity="0.2" stroke-width="0.489803"/>
<rect width="22.0095" height="11.8184" transform="matrix(1 0 -0.0433514 0.99906 44.448 97.7092)" fill="#D9FC60"/>
<path d="M48.7422 104.007C49.2387 104.007 49.6582 103.614 49.6792 103.129C49.7003 102.644 49.3149 102.25 48.8184 102.25C48.3219 102.25 47.9024 102.644 47.8813 103.129C47.8603 103.614 48.2457 104.007 48.7422 104.007Z" fill="#25B208"/>
<path d="M60.9755 104.074C61.4903 104.074 61.9254 103.665 61.9473 103.162C61.9691 102.659 61.5694 102.25 61.0546 102.25C60.5397 102.25 60.1046 102.659 60.0828 103.162C60.0609 103.665 60.4606 104.074 60.9755 104.074Z" fill="#25B208"/>
<path d="M58.9599 102.94C58.87 105.011 57.1782 106.785 54.802 107.066C52.6097 107.331 50.8982 105.724 50.9881 103.652C51.078 101.581 52.921 99.7742 55.1271 99.5753C57.3332 99.3765 59.0505 100.851 58.9606 102.923L58.9599 102.94Z" fill="#25B208"/>
<path d="M53.3687 104.034C53.9529 104.382 54.4112 104.564 54.9272 104.564C55.2602 104.564 55.4303 104.481 55.4382 104.299C55.4641 103.702 52.946 103.802 53.0179 102.144C53.0574 101.233 53.8658 100.636 55.1143 100.636C55.9467 100.636 56.499 100.951 56.945 101.415L56.1585 102.277C55.7379 101.995 55.4281 101.846 54.9619 101.846C54.6456 101.846 54.4748 101.945 54.4669 102.128C54.4454 102.625 56.9606 102.592 56.8915 104.183C56.8534 105.061 56.09 105.774 54.6417 105.774C54.0424 105.774 53.1875 105.525 52.659 105.045L53.3695 104.017L53.3687 104.034ZM54.5965 99.5258L55.5953 99.5258L55.527 101.1L54.5282 101.1L54.5965 99.5258ZM55.3515 105.144L55.2688 107.05L54.27 107.05L54.3527 105.144L55.3515 105.144Z" fill="#F2FFEA"/>
<ellipse cx="2.75119" cy="2.27277" rx="2.75119" ry="2.27277" transform="matrix(1 0 -0.0433514 0.99906 42.6533 96.8009)" fill="#25B208"/>
<ellipse cx="2.29265" cy="2.27277" rx="2.29265" ry="2.27277" transform="matrix(1 0 -0.0433514 0.99906 43.1763 105.883)" fill="#25B208"/>
<ellipse cx="2.29265" cy="2.27277" rx="2.29265" ry="2.27277" transform="matrix(1 0 -0.0433514 0.99906 62.8286 96.8009)" fill="#25B208"/>
<ellipse cx="2.29265" cy="2.27277" rx="2.29265" ry="2.27277" transform="matrix(1 0 -0.0433514 0.99906 62.4346 105.883)" fill="#25B208"/>
<path d="M66.7192 92.9056C66.6453 92.2631 65.8842 91.8735 65.3145 92.1991C63.1023 93.4632 58.8517 95.5513 54.8622 95.5513L42.6474 95.5513C42.1945 95.5513 41.8374 95.9077 41.8364 96.3613L41.8107 108.528C41.8098 108.986 42.1726 109.369 42.6259 109.391C44.6447 109.488 49.3397 109.642 54.8003 109.332C60.5878 109.004 65.808 107.401 67.7021 106.759C68.0461 106.642 68.2524 106.301 68.2094 105.925L66.7192 92.9056Z" fill="#25B208"/>
<path d="M66.7192 92.9056C66.6453 92.2631 65.8842 91.8735 65.3145 92.1991C63.1023 93.4632 58.8517 95.5513 54.8622 95.5513L42.6474 95.5513C42.1945 95.5513 41.8374 95.9077 41.8364 96.3613L41.8107 108.528C41.8098 108.986 42.1726 109.369 42.6259 109.391C44.6447 109.488 49.3397 109.642 54.8003 109.332C60.5878 109.004 65.808 107.401 67.7021 106.759C68.0461 106.642 68.2524 106.301 68.2094 105.925L66.7192 92.9056Z" stroke="black" stroke-width="0.489803"/>
<path d="M66.7192 92.9056C66.6453 92.2631 65.8842 91.8735 65.3145 92.1991C63.1023 93.4632 58.8517 95.5513 54.8622 95.5513L42.6474 95.5513C42.1945 95.5513 41.8374 95.9077 41.8364 96.3613L41.8107 108.528C41.8098 108.986 42.1726 109.369 42.6259 109.391C44.6447 109.488 49.3397 109.642 54.8003 109.332C60.5878 109.004 65.808 107.401 67.7021 106.759C68.0461 106.642 68.2524 106.301 68.2094 105.925L66.7192 92.9056Z" stroke="black" stroke-opacity="0.2" stroke-width="0.489803"/>
<path d="M64.4566 94.3551C64.4566 94.3551 59.8785 97.2092 55.3062 97.2092C50.7339 97.2092 44.4189 97.2092 44.4189 97.2092L44.3984 107.198C44.3984 107.198 49.7978 107.782 55.5545 107.782C61.3112 107.782 65.807 104.82 65.807 104.82L64.4566 94.3551Z" fill="#D9FC60"/>
<path d="M47.6831 103.166C48.2171 103.126 48.6417 102.703 48.6314 102.222C48.6212 101.741 48.18 101.383 47.646 101.423C47.1121 101.463 46.6875 101.886 46.6977 102.367C46.708 102.848 47.1491 103.206 47.6831 103.166Z" fill="#25B208"/>
<path d="M60.8146 102.28C61.3683 102.238 61.8086 101.8 61.798 101.3C61.7874 100.801 61.3298 100.43 60.7761 100.471C60.2223 100.513 59.782 100.951 59.7927 101.451C59.8033 101.95 60.2608 102.321 60.8146 102.28Z" fill="#25B208"/>
<path d="M58.5936 101.296C58.6334 103.345 56.9275 105.234 54.3858 105.709C52.0411 106.152 50.091 104.71 50.0513 102.661C50.0115 100.612 51.8782 98.6786 54.242 98.2991C56.6059 97.9196 58.5535 99.2305 58.5933 101.28L58.5936 101.296Z" fill="#25B208"/>
<path d="M52.6375 102.84C53.292 103.135 53.7993 103.277 54.3571 103.234C54.717 103.206 54.8953 103.11 54.8918 102.929C54.8803 102.338 52.1652 102.646 52.1332 101.002C52.1156 100.098 52.9498 99.4413 54.2994 99.3372C55.1991 99.2678 55.8169 99.5329 56.3297 99.9542L55.5366 100.871C55.0633 100.628 54.7186 100.506 54.2147 100.545C53.8729 100.572 53.6948 100.684 53.6984 100.865C53.7079 101.358 56.4244 101.116 56.455 102.693C56.472 103.564 55.694 104.332 54.1285 104.453C53.4807 104.503 52.5403 104.329 51.9372 103.898L52.6372 102.823L52.6375 102.84ZM53.6662 98.2832L54.7458 98.1999L54.7762 99.7613L53.6965 99.8446L53.6662 98.2832ZM54.8541 103.772L54.8909 105.662L53.8112 105.745L53.7745 103.855L54.8541 103.772Z" fill="#F2FFEA"/>
<ellipse cx="2.01379" cy="1.88271" rx="2.01379" ry="1.88271" transform="matrix(0.913692 0.368065 -0.411984 0.927464 43.5935 95.7819)" fill="#25B208"/>
<ellipse cx="2.23952" cy="1.90481" rx="2.23952" ry="1.90481" transform="matrix(0.871283 0.45364 -0.496372 0.888204 44.0947 103.505)" fill="#25B208"/>
<path d="M65.8163 95.7791C66.182 96.8283 65.6052 98.0751 64.528 98.5638C63.4508 99.0526 62.2812 98.5982 61.9155 97.549C61.5499 96.4998 62.4651 94.8437 63.5422 94.3549C64.6194 93.8662 65.4507 94.7299 65.8163 95.7791Z" fill="#25B208"/>
<ellipse cx="2.38953" cy="2.08835" rx="2.38953" ry="2.08835" transform="matrix(0.931659 0.324606 -0.368904 0.943807 62.7729 102.026)" fill="#25B208"/>
<rect x="50.1963" y="94.9092" width="7.27274" height="14.5455" fill="#FAF0F0"/>
<path d="M60.7371 101.581C60.5472 104.873 57.7124 107.691 53.7746 108.138C50.1413 108.56 47.3409 106.005 47.5309 102.713C47.7208 99.4215 50.8066 96.551 54.4613 96.235C58.116 95.9189 60.9285 98.2627 60.7386 101.555L60.7371 101.581Z" fill="#FAF0F0"/>
<path d="M53.2486 106.365V105.575C52.9274 105.548 52.6226 105.501 52.3342 105.433C52.0458 105.366 51.7967 105.278 51.5869 105.17V103.49C51.895 103.638 52.2326 103.76 52.5997 103.854C52.9733 103.949 53.3142 103.996 53.6223 103.996C53.8845 103.996 54.0844 103.965 54.2221 103.905C54.3597 103.844 54.4286 103.739 54.4286 103.591C54.4286 103.429 54.3204 103.307 54.1041 103.226C53.8943 103.145 53.5862 103.034 53.1798 102.892C52.7603 102.737 52.4292 102.575 52.1867 102.406C51.9507 102.231 51.7803 102.022 51.6754 101.779C51.5705 101.536 51.5181 101.232 51.5181 100.868C51.5181 99.808 52.0949 99.1702 53.2486 98.9543V98.1039H55.0382V98.934C55.2676 98.961 55.4905 98.9981 55.7068 99.0454C55.9232 99.0859 56.1067 99.1297 56.2575 99.177V100.868C55.9232 100.726 55.6151 100.628 55.3332 100.574C55.0579 100.52 54.8055 100.493 54.5761 100.493C54.3466 100.493 54.1369 100.517 53.9468 100.564C53.7632 100.604 53.6714 100.702 53.6714 100.857C53.6714 100.986 53.7534 101.084 53.9173 101.151C54.0811 101.212 54.3565 101.3 54.7432 101.414C55.2611 101.556 55.6511 101.731 55.9133 101.941C56.1821 102.143 56.3623 102.383 56.4541 102.659C56.5524 102.929 56.6016 103.24 56.6016 103.591C56.6016 104.05 56.4705 104.441 56.2083 104.765C55.9526 105.089 55.5626 105.322 55.0382 105.464V106.365H53.2486Z" fill="url(#paint0_linear_40_1388)"/>
<path d="M54.4279 103.645C54.4127 103.766 54.3448 103.852 54.2237 103.906L54.1077 103.946C53.9803 103.98 53.8175 103.997 53.6196 103.997C53.3095 103.997 52.9663 103.949 52.5902 103.855C52.2208 103.76 51.8812 103.639 51.5711 103.49V105.172C51.7822 105.28 52.033 105.368 52.3232 105.435C52.6135 105.503 52.9206 105.55 53.2438 105.577V106.367H55.0446V105.466C55.5724 105.324 55.9653 105.091 56.2226 104.767C56.4535 104.483 56.5833 104.148 56.6123 103.761L56.6189 103.592C56.6189 103.241 56.5692 102.93 56.4703 102.66C56.3779 102.383 56.1964 102.143 55.926 101.941C55.6621 101.732 55.2692 101.556 54.748 101.414C54.5535 101.357 54.387 101.306 54.2484 101.262L53.9168 101.151C53.7518 101.083 53.6691 100.985 53.6691 100.856C53.6692 100.721 53.7399 100.629 53.8812 100.581L53.9464 100.563C54.1376 100.516 54.3487 100.492 54.5795 100.492L54.7571 100.497C54.939 100.507 55.1339 100.533 55.3419 100.573C55.6256 100.627 55.9357 100.725 56.2722 100.867V99.1754C56.1205 99.1281 55.9358 99.0842 55.7182 99.0437C55.5005 98.9964 55.2756 98.9588 55.0446 98.9318V98.1015H53.2438V98.9522C52.0825 99.1683 51.5016 99.8067 51.5016 100.867L51.5041 101C51.5156 101.306 51.5676 101.566 51.6599 101.778C51.7655 102.021 51.9371 102.231 52.1746 102.406C52.4187 102.575 52.7521 102.738 53.1744 102.893L53.7138 103.083C53.8688 103.138 53.9991 103.186 54.1047 103.227L54.1814 103.26C54.3479 103.339 54.4315 103.45 54.4315 103.592L54.4279 103.645ZM55.6632 98.389C55.7184 98.3995 55.7736 98.4088 55.8281 98.4205C56.0609 98.4638 56.2707 98.513 56.4522 98.5695C56.7126 98.6506 56.8907 98.8967 56.8907 99.1754V100.867C56.8907 101.078 56.7879 101.276 56.6165 101.393C56.5406 101.445 56.4553 101.477 56.3676 101.491C56.6792 101.743 56.9173 102.057 57.0484 102.437H57.0496C57.1796 102.792 57.2375 103.181 57.2375 103.592C57.2375 104.185 57.063 104.724 56.698 105.172L56.6974 105.171C56.4292 105.507 56.0752 105.75 55.6632 105.921V106.367C55.6632 106.717 55.3863 107 55.0446 107H53.2438C52.9022 107 52.6253 106.717 52.6253 106.367V106.138C52.4761 106.113 52.3295 106.086 52.1861 106.053C51.8594 105.977 51.5597 105.874 51.2944 105.738C51.0849 105.631 50.9525 105.412 50.9525 105.172V103.49C50.9526 103.274 51.0604 103.072 51.2389 102.956C51.4023 102.85 51.6038 102.829 51.7838 102.897C51.4831 102.668 51.245 102.382 51.0945 102.035C50.9434 101.687 50.8831 101.289 50.8831 100.867C50.8831 100.213 51.0658 99.6222 51.4847 99.1618C51.7861 98.8306 52.1767 98.6043 52.6253 98.4582V98.1015C52.6253 97.7518 52.9022 97.4684 53.2438 97.4684H55.0446C55.3863 97.4684 55.6632 97.7518 55.6632 98.1015V98.389Z" fill="#022B0C"/>
<rect x="50.1963" y="109.455" width="7.27274" height="4.54546" fill="#D9D9D9"/>
<path d="M126.099 98.1982C127.148 98.1982 128 99.049 128 100.099C128 101.149 127.149 102 126.099 102H78.9014C77.8515 102 77 101.149 77 100.099C77.0002 99.049 77.8516 98.1982 78.9014 98.1982H126.099Z" fill="#A6A6A6"/>
<path d="M102.099 108.198C103.148 108.198 104 109.049 104 110.099C104 111.149 103.149 112 102.099 112H78.9014C77.8515 112 77 111.149 77 110.099C77.0002 109.049 77.8516 108.198 78.9014 108.198H102.099Z" fill="#A6A6A6"/>
<path d="M111 50.3418L130.09 31.0607L127.594 47.6974L136.799 52.092L114.334 72.3386L118.702 56.0158L111 50.3418Z" fill="black" fill-opacity="0.12"/>
<path d="M111 43.2812L130.09 24L127.594 40.6367L136.799 45.0314L114.334 65.278L118.702 48.9551L111 43.2812Z" fill="#FED63F"/>
<path d="M86.9662 31.581L91.8378 16.7278L94.8366 25.9441L100.712 25.8381L94.3498 42.0579L92.3967 32.5212L86.9662 31.581Z" fill="#FED63F"/>
</g>
<path d="M25.8532 74.7705L24.0484 75.7955C23.2021 76.1752 22.5371 76.906 22.1917 77.8361L21.2591 79.8197C21.2159 79.9336 21.1209 80 21.0086 80C20.8964 80 20.8014 79.9241 20.7582 79.8197L20.0069 77.7981C19.6356 76.8016 18.9188 76.0043 18.0035 75.5962L16.1641 74.7705C16.0604 74.723 16 74.6186 16 74.4953C16 74.3719 16.0691 74.2675 16.1641 74.22L18.1244 73.3469C18.9534 72.9767 19.6183 72.2459 19.9551 71.3348L20.7496 69.1803C20.7927 69.0664 20.8877 69 21 69C21.1123 69 21.2073 69.0759 21.2504 69.1803L22.0017 71.2114C22.3644 72.2079 23.0812 72.9862 23.9879 73.3943L25.8359 74.22C25.9396 74.2675 26 74.3719 26 74.4953C26 74.6186 25.9309 74.723 25.8359 74.7705H25.8532Z" fill="#FED63F"/>
<path d="M156.736 9.54736L153.487 11.2247C151.964 11.8459 150.767 13.0418 150.145 14.5638L148.466 17.8097C148.389 17.996 148.218 18.1047 148.016 18.1047C147.813 18.1047 147.642 17.9805 147.565 17.8097L146.212 14.5016C145.544 12.8709 144.254 11.5663 142.606 10.8985L139.295 9.54736C139.109 9.46971 139 9.29887 139 9.09697C139 8.89507 139.124 8.72424 139.295 8.64658L142.824 7.21776C144.316 6.61207 145.513 5.41621 146.119 3.92527L147.549 0.399818C147.627 0.213451 147.798 0.104736 148 0.104736C148.202 0.104736 148.373 0.228981 148.451 0.399818L149.803 3.72337C150.456 5.35409 151.746 6.6276 153.378 7.29542L156.705 8.64658C156.891 8.72424 157 8.89507 157 9.09697C157 9.29887 156.876 9.46971 156.705 9.54736H156.736Z" fill="#FED63F"/>
<path d="M116.897 23.6721L115.634 24.3244C115.041 24.566 114.576 25.0311 114.334 25.623L113.681 26.8852C113.651 26.9577 113.585 27 113.506 27C113.427 27 113.361 26.9517 113.331 26.8852L112.805 25.5988C112.545 24.9646 112.043 24.4573 111.402 24.1976L110.115 23.6721C110.042 23.6419 110 23.5755 110 23.497C110 23.4185 110.048 23.352 110.115 23.3218L111.487 22.7662C112.067 22.5306 112.533 22.0656 112.769 21.4858L113.325 20.1148C113.355 20.0423 113.421 20 113.5 20C113.579 20 113.645 20.0483 113.675 20.1148L114.201 21.4072C114.455 22.0414 114.957 22.5367 115.592 22.7964L116.885 23.3218C116.958 23.352 117 23.4185 117 23.497C117 23.5755 116.952 23.6419 116.885 23.6721H116.897Z" fill="white"/>
</g>
<defs>
<linearGradient id="paint0_linear_40_1388" x1="52.2721" y1="93.5628" x2="58.7003" y2="94.3501" gradientUnits="userSpaceOnUse">
<stop stop-color="#EFF8CE"/>
<stop offset="0.333333" stop-color="#D9FC60"/>
<stop offset="0.666667" stop-color="#E0F0C3"/>
<stop offset="1" stop-color="#9AC64D"/>
</linearGradient>
<clipPath id="clip0_40_1388">
<rect width="170" height="172.791" fill="white" transform="translate(0 0.104736)"/>
</clipPath>
</defs>
</svg>
