<svg width="126" height="117" viewBox="0 0 126 117" fill="none" xmlns="http://www.w3.org/2000/svg">
<path d="M125.578 97.1148L121.066 99.4443C118.95 100.307 117.288 101.968 116.424 104.082L114.092 108.59C113.985 108.849 113.747 109 113.466 109C113.186 109 112.948 108.827 112.84 108.59L110.962 103.996C110.034 101.731 108.242 99.9189 105.953 98.9914L101.355 97.1148C101.096 97.0069 100.945 96.7696 100.945 96.4892C100.945 96.2088 101.118 95.9715 101.355 95.8637L106.256 93.8792C108.328 93.038 109.991 91.377 110.833 89.3063L112.819 84.4098C112.927 84.151 113.164 84 113.445 84C113.725 84 113.963 84.1726 114.071 84.4098L115.949 89.0259C116.856 91.2908 118.648 93.0595 120.915 93.9871L125.535 95.8637C125.794 95.9715 125.945 96.2088 125.945 96.4892C125.945 96.7696 125.772 97.0069 125.535 97.1148H125.578Z" fill="#FED846"/>
<path d="M16.421 36.8197L14.0747 38.0311C12.9745 38.4797 12.1101 39.3434 11.661 40.4426L10.4486 42.7869C10.3925 42.9215 10.269 43 10.123 43C9.9771 43 9.85361 42.9103 9.79748 42.7869L8.8208 40.3978C8.33807 39.22 7.40629 38.2778 6.21631 37.7955L3.82511 36.8197C3.6904 36.7636 3.61182 36.6402 3.61182 36.4944C3.61182 36.3486 3.70162 36.2252 3.82511 36.1691L6.37347 35.1372C7.45119 34.6997 8.31562 33.8361 8.75344 32.7593L9.78626 30.2131C9.84239 30.0785 9.96588 30 10.1118 30C10.2578 30 10.3812 30.0897 10.4374 30.2131L11.4141 32.6135C11.8856 33.7912 12.8173 34.711 13.9961 35.1933L16.3985 36.1691C16.5332 36.2252 16.6118 36.3486 16.6118 36.4944C16.6118 36.6402 16.522 36.7636 16.3985 36.8197H16.421Z" fill="#FED846"/>
<path d="M36.2298 45.396C35.6849 44.8512 35.264 44.1952 34.9959 43.4728C34.7277 42.7505 34.6186 41.9787 34.676 41.2103C34.7334 40.442 34.9558 39.695 35.3283 39.0204C35.7007 38.3459 36.2143 37.7597 36.834 37.3017C37.4537 36.8438 38.1649 36.525 38.9191 36.3671C39.6733 36.2092 40.4527 36.2159 41.204 36.3867C41.9554 36.5575 42.661 36.8884 43.2728 37.3569C43.8846 37.8253 44.3881 38.4203 44.7489 39.1011L40.0168 41.609L36.2298 45.396Z" fill="#858AEA"/>
<path d="M98.0241 72.6746C98.0241 72.6746 92.6305 70.41 86.8416 65.1838C80.2917 59.2704 73.0793 50.1125 69.757 46.2324C62.7282 38.025 50.1789 35.9245 39.5708 43.1341L38.9305 43.5692C28.3224 50.7788 25.6562 63.2202 30.7002 72.7766C33.0845 77.2957 38.9452 87.3707 42.0325 95.6374C44.7604 102.946 44.8812 108.792 44.8812 108.792L98.0241 72.6746Z" fill="#BDC0FF"/>
<path d="M35.2699 45.1844C34.3 43.7573 33.8786 42.0428 34.0983 40.4182C34.3181 38.7936 35.161 37.3919 36.4417 36.5215C37.7224 35.651 39.336 35.3832 40.9275 35.7769C42.5189 36.1706 43.9579 37.1935 44.9278 38.6207" stroke="black" stroke-width="1.70965" stroke-linecap="round" stroke-linejoin="round"/>
<path d="M97.91 72.5077C97.91 72.5077 92.4915 70.225 86.6722 64.9652C80.0881 59.0137 72.8348 49.8004 69.4942 45.8965C62.4264 37.6388 49.8228 35.5123 39.1798 42.7456L38.5374 43.1821C27.8944 50.4154 25.2324 62.9169 30.3088 72.528C32.7085 77.0731 38.6056 87.2065 41.7157 95.519C44.4638 102.868 44.5922 108.744 44.5922 108.744L97.91 72.5077Z" stroke="black" stroke-width="1.70965" stroke-miterlimit="10" stroke-linecap="round" stroke-linejoin="round"/>
<mask id="mask0_40_1857" style="mask-type:alpha" maskUnits="userSpaceOnUse" x="28" y="39" width="69" height="69">
<path d="M96.0779 72.2914C96.0779 72.2914 90.8703 70.0813 85.2703 65.0059C78.9343 59.2633 71.9473 50.381 68.7303 46.6166C61.9239 38.6539 49.8193 36.5753 39.6212 43.5063L39.0057 43.9246C28.8076 50.8555 26.2848 62.8753 31.183 72.1348C33.4984 76.5135 39.1859 86.2775 42.1932 94.2824C44.8504 101.359 44.989 107.013 44.989 107.013L96.0779 72.2914Z" fill="#4951EC"/>
</mask>
<g mask="url(#mask0_40_1857)">
<path d="M54.4355 105.053C54.4355 131.673 78.1722 153.253 51.5517 153.253C24.9312 153.253 3.35107 131.673 3.35107 105.053C3.35107 78.4321 13.396 36.6654 40.0165 36.6654C66.637 36.6654 54.4355 78.4321 54.4355 105.053Z" fill="#858AEA"/>
<path opacity="0.2" d="M45.9912 57.8323C27.9852 68.2281 22.3749 92.2206 12.2966 74.7645C2.21837 57.3085 8.64513 34.7301 26.6512 24.3343C44.6572 13.9385 76.7111 4.21466 86.7894 21.6707C96.8676 39.1267 63.9973 47.4365 45.9912 57.8323Z" fill="#8186DF"/>
</g>
<path d="M64.649 80.0775C73.1961 74.6033 81.6472 70.8242 88.383 69.1244C91.7553 68.2735 94.6517 67.9557 96.8945 68.1784C99.1486 68.4022 100.598 69.1521 101.325 70.286C102.051 71.42 102.126 73.0503 101.386 75.1914C100.65 77.3217 99.1499 79.819 96.9665 82.5263C92.6055 87.9338 85.6388 94.0305 77.0916 99.5048C68.5443 104.979 60.0921 108.758 53.3563 110.458C49.9844 111.308 47.0887 111.626 44.8461 111.404C42.5919 111.18 41.1424 110.43 40.4161 109.296C39.6898 108.162 39.6149 106.532 40.3544 104.391C41.0902 102.261 42.5895 99.7629 44.7727 97.0557C49.1338 91.6481 56.1016 85.5519 64.649 80.0775Z" fill="#434BC9" stroke="black" stroke-width="1.64788"/>
<mask id="mask1_40_1857" style="mask-type:alpha" maskUnits="userSpaceOnUse" x="48" y="76" width="49" height="34">
<path d="M69.7917 88.3808C76.2772 84.2271 82.5163 81.1135 87.3416 79.4275C89.7637 78.5812 91.764 78.1179 93.2296 78.0337C94.81 77.943 95.2828 78.3102 95.3839 78.4677C95.4847 78.625 95.6215 79.2083 94.8776 80.6069C94.1882 81.903 92.9303 83.5253 91.1485 85.3715C87.599 89.0494 82.162 93.4152 75.6765 97.569C69.1912 101.723 62.9522 104.835 58.1269 106.521C55.7048 107.367 53.7051 107.831 52.2394 107.916C50.6579 108.006 50.1853 107.638 50.0846 107.481C49.9839 107.323 49.848 106.74 50.5914 105.342C51.2808 104.046 52.5383 102.423 54.32 100.577C57.8694 96.8992 63.3065 92.5345 69.7917 88.3808Z" fill="#2B32B7" stroke="black" stroke-width="2.47183"/>
</mask>
<g mask="url(#mask1_40_1857)">
<ellipse cx="70.5622" cy="89.1642" rx="33.7393" ry="12.3591" transform="rotate(-32.6385 70.5622 89.1642)" fill="#6067EB"/>
<path d="M75.0066 95.5542C78.5599 93.1393 79.3076 88.0433 76.6765 84.172C74.0454 80.3007 69.032 79.1201 65.4787 81.535C61.9254 83.9499 61.1778 89.0459 63.8089 92.9172C66.4399 96.7885 71.4533 97.9692 75.0066 95.5542Z" fill="#DFFF70" stroke="black" stroke-width="1.70965" stroke-miterlimit="10"/>
<ellipse cx="72.2597" cy="91.5421" rx="4.55161" ry="2.63599" transform="rotate(-29.6414 72.2597 91.5421)" fill="white" fill-opacity="0.44"/>
</g>
<ellipse cx="45.7991" cy="53.0334" rx="13" ry="7.52873" transform="rotate(-29.6414 45.7991 53.0334)" fill="white" fill-opacity="0.12"/>
<path d="M69.7634 60.7937V57.1811C68.2504 57.0575 66.8146 56.8414 65.456 56.5326C64.0974 56.2239 62.9241 55.8225 61.936 55.3284L61.936 47.64C63.3873 48.3193 64.9774 48.8751 66.7066 49.3074C68.4666 49.7396 70.0722 49.9558 71.5234 49.9558C72.7585 49.9558 73.7002 49.8168 74.3487 49.5389C74.9971 49.2611 75.3213 48.7825 75.3213 48.1032C75.3213 47.3621 74.8118 46.8063 73.7929 46.4358C72.8048 46.0653 71.3536 45.5558 69.4392 44.9074C67.463 44.1972 65.9037 43.4561 64.7613 42.6842C63.6497 41.8814 62.8469 40.9242 62.3529 39.8126C61.8588 38.7011 61.6118 37.3116 61.6118 35.6442C61.6118 30.7965 64.329 27.8786 69.7634 26.8905V23L78.1929 23V26.7979C79.2736 26.9214 80.3234 27.0912 81.3423 27.3074C82.3613 27.4926 83.2259 27.6933 83.936 27.9095V35.6442C82.3613 34.9958 80.9101 34.5481 79.5823 34.3011C78.2855 34.054 77.0967 33.9305 76.016 33.9305C74.9353 33.9305 73.9473 34.0386 73.0518 34.2547C72.1873 34.44 71.755 34.8877 71.755 35.5979C71.755 36.1846 72.1409 36.6323 72.9129 36.9411C73.6848 37.2189 74.9816 37.6204 76.8034 38.1453C79.2427 38.7937 81.0799 39.5965 82.315 40.5537C83.5809 41.48 84.4301 42.5761 84.8623 43.8421C85.3255 45.0772 85.5571 46.4975 85.5571 48.1032C85.5571 50.2028 84.9395 51.9937 83.7044 53.4758C82.5002 54.9579 80.663 56.0232 78.1929 56.6716V60.7937H69.7634Z" fill="black"/>
<path d="M81.6733 33.6445C81.6732 33.8902 81.5504 34.1201 81.3462 34.2568C81.142 34.3936 80.883 34.4187 80.6558 34.3252C79.1165 33.6914 77.7145 33.2611 76.4478 33.0254L76.4448 33.0244C75.1839 32.7842 74.0417 32.667 73.0161 32.667C71.9841 32.667 71.0551 32.7704 70.2251 32.9707C70.219 32.9722 70.2126 32.9743 70.2065 32.9756C69.8597 33.0499 69.6888 33.1584 69.6089 33.2412C69.5444 33.308 69.4917 33.4047 69.4917 33.5977C69.4917 33.7568 69.5556 34.0022 70.1821 34.2539C70.9321 34.5228 72.202 34.9173 74.0073 35.4375H74.0063C76.4726 36.0943 78.4065 36.9236 79.7495 37.959C81.1156 38.9586 82.071 40.1714 82.5601 41.6035H82.5591C83.0541 42.9323 83.2935 44.4365 83.2935 46.1035C83.2934 48.3559 82.6264 50.3143 81.2749 51.9395L81.2759 51.9404C80.0411 53.46 78.2364 54.5411 75.9302 55.2285V58.7939C75.93 59.2008 75.5997 59.5303 75.1929 59.5303H66.7632C66.3564 59.5302 66.027 59.2007 66.0269 58.7939V55.8525C64.7279 55.7211 63.4827 55.5215 62.2925 55.251C60.8908 54.9324 59.6593 54.5135 58.6069 53.9873C58.3573 53.8625 58.1987 53.6072 58.1987 53.3281V45.6396C58.1988 45.3879 58.3281 45.1537 58.5405 45.0186C58.7531 44.8833 59.0203 44.8658 59.2485 44.9727C60.6513 45.6292 62.1947 46.1699 63.8813 46.5918H63.8823C65.5982 47.0132 67.1436 47.2187 68.5229 47.2188C69.7219 47.2188 70.5459 47.0808 71.0581 46.8613C71.2813 46.7657 71.4011 46.6576 71.4683 46.5586C71.534 46.4615 71.5844 46.322 71.5845 46.1035C71.5845 45.921 71.5284 45.7734 71.396 45.6289C71.2487 45.4682 70.985 45.2892 70.5415 45.1279L70.5337 45.126C69.5569 44.7597 68.1148 44.2531 66.2026 43.6055L66.1899 43.6006C64.183 42.8793 62.5614 42.114 61.3491 41.2949C61.3428 41.2906 61.3358 41.2857 61.3296 41.2812C60.1264 40.4122 59.2325 39.3572 58.6792 38.1123C58.1309 36.8785 57.8745 35.3789 57.8745 33.6445C57.8745 31.0767 58.599 28.9409 60.1108 27.3174C61.5031 25.8225 63.5002 24.8306 66.0269 24.2861V21C66.0269 20.8046 66.1045 20.6167 66.2427 20.4785C66.3808 20.3406 66.568 20.2628 66.7632 20.2627H75.1929C75.5998 20.2627 75.9302 20.5931 75.9302 21V24.1475C76.7968 24.2626 77.6445 24.4069 78.4731 24.582H78.4741C79.511 24.7706 80.4053 24.9772 81.1509 25.2041C81.461 25.2985 81.6732 25.585 81.6733 25.9092V33.6445Z" fill="url(#paint0_linear_40_1857)" stroke="black" stroke-width="1.47368" stroke-linejoin="round"/>
<path d="M96.8069 43.6678V41.4838C95.8922 41.4092 95.0242 41.2785 94.2029 41.0918C93.3816 40.9052 92.6722 40.6625 92.0749 40.3638L92.0749 35.7158C92.9522 36.1265 93.9136 36.4625 94.9589 36.7238C96.0229 36.9852 96.9936 37.1158 97.8709 37.1158C98.6176 37.1158 99.1869 37.0318 99.5789 36.8638C99.9709 36.6958 100.167 36.4065 100.167 35.9958C100.167 35.5478 99.8589 35.2118 99.2429 34.9878C98.6456 34.7638 97.7682 34.4558 96.6109 34.0638C95.4162 33.6345 94.4736 33.1865 93.7829 32.7198C93.1109 32.2345 92.6256 31.6558 92.3269 30.9838C92.0282 30.3118 91.8789 29.4718 91.8789 28.4638C91.8789 25.5332 93.5216 23.7692 96.8069 23.1718V20.8198L101.903 20.8198V23.1158C102.556 23.1905 103.191 23.2932 103.807 23.4238C104.423 23.5358 104.946 23.6572 105.375 23.7878V28.4638C104.423 28.0718 103.546 27.8012 102.743 27.6518C101.959 27.5025 101.24 27.4278 100.587 27.4278C99.9336 27.4278 99.3362 27.4932 98.7949 27.6238C98.2722 27.7358 98.0109 28.0065 98.0109 28.4358C98.0109 28.7905 98.2442 29.0612 98.7109 29.2478C99.1776 29.4158 99.9616 29.6585 101.063 29.9758C102.538 30.3678 103.648 30.8532 104.395 31.4318C105.16 31.9918 105.674 32.6545 105.935 33.4198C106.215 34.1665 106.355 35.0252 106.355 35.9958C106.355 37.2652 105.982 38.3478 105.235 39.2438C104.507 40.1398 103.396 40.7838 101.903 41.1758V43.6678H96.8069Z" fill="black"/>
<path d="M102.792 27.6436C102.792 27.8715 102.677 28.0851 102.488 28.2119C102.299 28.3386 102.059 28.362 101.848 28.2754C100.929 27.897 100.097 27.6427 99.3511 27.5039L99.3481 27.5029C98.5974 27.3599 97.9221 27.291 97.3198 27.291C96.7115 27.291 96.1687 27.3517 95.688 27.4678C95.6825 27.4691 95.6769 27.4705 95.6714 27.4717C95.5008 27.5082 95.4423 27.5541 95.4321 27.5635C95.4309 27.5672 95.4272 27.5832 95.4272 27.6162C95.4273 27.6217 95.427 27.6251 95.4272 27.627C95.4278 27.6281 95.4303 27.6319 95.436 27.6387C95.4576 27.6637 95.5247 27.7225 95.688 27.7891C96.1336 27.9488 96.8947 28.1849 97.9849 28.499H97.9839C99.4841 28.8989 100.684 29.4095 101.531 30.0605C102.387 30.6871 102.996 31.4564 103.311 32.373C103.622 33.2079 103.771 34.1457 103.771 35.1758C103.771 36.5866 103.352 37.825 102.498 38.8535L102.499 38.8545C101.745 39.7815 100.666 40.4406 99.3188 40.8682V42.8477C99.3188 43.2249 99.0134 43.531 98.6362 43.5312H93.5396C93.1623 43.5311 92.8569 43.2249 92.8569 42.8477V41.2832C92.1396 41.2032 91.4486 41.0894 90.7847 40.9385C89.9232 40.7427 89.1595 40.4838 88.5024 40.1553C88.271 40.0395 88.1245 39.8027 88.1245 39.5439V34.8965C88.1245 34.6629 88.2438 34.4447 88.4409 34.3193C88.638 34.194 88.8856 34.1784 89.0972 34.2773C89.9296 34.667 90.848 34.9885 91.854 35.2402C92.8773 35.4916 93.7932 35.6123 94.604 35.6123C95.317 35.6123 95.7768 35.5298 96.0425 35.416C96.1449 35.3721 96.1771 35.332 96.187 35.3174C96.1958 35.3043 96.2163 35.2684 96.2163 35.1758C96.2163 35.1262 96.206 35.094 96.1655 35.0498C96.1111 34.9905 95.9893 34.9003 95.7427 34.8105L95.7358 34.8076C95.149 34.5876 94.2799 34.2829 93.1245 33.8916L93.1128 33.8867C91.8894 33.4471 90.8887 32.9763 90.1333 32.4658C90.1275 32.4619 90.1214 32.4582 90.1157 32.4541C89.3585 31.9073 88.7888 31.2372 88.4351 30.4414C88.0861 29.6561 87.9282 28.7138 87.9282 27.6436C87.9283 26.0449 88.3809 24.6917 89.3442 23.6572C90.1929 22.746 91.3842 22.1403 92.8569 21.7959V20C92.8569 19.6227 93.1623 19.3165 93.5396 19.3164H98.6362C98.8172 19.3165 98.9906 19.3887 99.1187 19.5166C99.2468 19.6447 99.3188 19.8188 99.3188 20V21.6953C99.7749 21.7604 100.223 21.839 100.662 21.9316C101.294 22.0467 101.845 22.1738 102.307 22.3145C102.595 22.4021 102.791 22.6673 102.792 22.9678V27.6436Z" fill="url(#paint1_linear_40_1857)" stroke="black" stroke-width="1.36651" stroke-linejoin="round"/>
<path d="M120.362 11.1778L117.294 12.7619C115.855 13.3486 114.725 14.4781 114.138 15.9155L112.552 18.9811C112.479 19.1571 112.317 19.2598 112.126 19.2598C111.936 19.2598 111.774 19.1424 111.701 18.9811L110.424 15.8568C109.792 14.3167 108.574 13.0846 107.018 12.4539L103.891 11.1778C103.715 11.1045 103.612 10.9431 103.612 10.7524C103.612 10.5618 103.729 10.4004 103.891 10.3271L107.223 8.97763C108.633 8.40558 109.763 7.27616 110.335 5.86805L111.686 2.53845C111.759 2.36244 111.921 2.25977 112.112 2.25977C112.303 2.25977 112.464 2.37711 112.538 2.53845L113.815 5.67737C114.431 7.21749 115.65 8.42025 117.191 9.05097L120.333 10.3271C120.509 10.4004 120.612 10.5618 120.612 10.7524C120.612 10.9431 120.494 11.1045 120.333 11.1778H120.362Z" fill="#FED846"/>
<defs>
<linearGradient id="paint0_linear_40_1857" x1="52.8158" y1="1.32934" x2="93.6243" y2="24.5504" gradientUnits="userSpaceOnUse">
<stop offset="0.418648" stop-color="#F9FFE6"/>
<stop offset="1" stop-color="#D4FF41"/>
</linearGradient>
<linearGradient id="paint1_linear_40_1857" x1="79.376" y1="-3.86081" x2="117.217" y2="17.6714" gradientUnits="userSpaceOnUse">
<stop offset="0.418648" stop-color="#F9FFE6"/>
<stop offset="1" stop-color="#D4FF41"/>
</linearGradient>
</defs>
</svg>
